solid ASCII
  facet normal 0.000000e+00 -0.000000e+00 1.000000e+00
    outer loop
      vertex   4.000000e-02 -3.500000e-02 -3.155160e-01
      vertex   8.090474e-02 -1.267235e-02 -3.155160e-01
      vertex   3.500000e-02 -3.500000e-02 -3.155160e-01
    endloop
  endfacet
  facet normal 0.000000e+00 -0.000000e+00 1.000000e+00
    outer loop
      vertex   3.500000e-02 -3.500000e-02 -3.155160e-01
      vertex   8.090474e-02 -1.267235e-02 -3.155160e-01
      vertex   -4.128628e-02 -1.267235e-02 -3.155160e-01
    endloop
  endfacet
  facet normal 0.000000e+00 0.000000e+00 1.000000e+00
    outer loop
      vertex   3.500000e-02 -3.500000e-02 -3.155160e-01
      vertex   -4.128628e-02 -1.267235e-02 -3.155160e-01
      vertex   -3.000000e-02 -3.500000e-02 -3.155160e-01
    endloop
  endfacet
  facet normal 0.000000e+00 0.000000e+00 1.000000e+00
    outer loop
      vertex   -3.000000e-02 -3.500000e-02 -3.155160e-01
      vertex   -4.128628e-02 -1.267235e-02 -3.155160e-01
      vertex   -3.500000e-02 -3.500000e-02 -3.155160e-01
    endloop
  endfacet
  facet normal 0.000000e+00 0.000000e+00 1.000000e+00
    outer loop
      vertex   -3.500000e-02 -3.500000e-02 -3.155160e-01
      vertex   -4.128628e-02 -1.267235e-02 -3.155160e-01
      vertex   -3.500000e-02 -6.499801e-02 -3.155160e-01
    endloop
  endfacet
  facet normal 0.000000e+00 0.000000e+00 1.000000e+00
    outer loop
      vertex   -3.500000e-02 -6.499801e-02 -3.155160e-01
      vertex   -4.128628e-02 -1.267235e-02 -3.155160e-01
      vertex   -4.128628e-02 -8.732765e-02 -3.155160e-01
    endloop
  endfacet
  facet normal 0.000000e+00 0.000000e+00 1.000000e+00
    outer loop
      vertex   -3.500000e-02 -6.499801e-02 -3.155160e-01
      vertex   -4.128628e-02 -8.732765e-02 -3.155160e-01
      vertex   -3.000000e-02 -6.499801e-02 -3.155160e-01
    endloop
  endfacet
  facet normal 0.000000e+00 0.000000e+00 1.000000e+00
    outer loop
      vertex   -3.000000e-02 -6.499801e-02 -3.155160e-01
      vertex   -4.128628e-02 -8.732765e-02 -3.155160e-01
      vertex   3.500000e-02 -6.499801e-02 -3.155160e-01
    endloop
  endfacet
  facet normal -0.000000e+00 0.000000e+00 1.000000e+00
    outer loop
      vertex   -3.000000e-02 -6.499801e-02 -3.155160e-01
      vertex   3.500000e-02 -6.499801e-02 -3.155160e-01
      vertex   3.500000e-02 -3.500000e-02 -3.155160e-01
    endloop
  endfacet
  facet normal -0.000000e+00 0.000000e+00 1.000000e+00
    outer loop
      vertex   4.000000e-02 -3.500000e-02 -3.155160e-01
      vertex   4.000000e-02 -6.499801e-02 -3.155160e-01
      vertex   8.090474e-02 -1.267235e-02 -3.155160e-01
    endloop
  endfacet
  facet normal 0.000000e+00 0.000000e+00 1.000000e+00
    outer loop
      vertex   8.090474e-02 -1.267235e-02 -3.155160e-01
      vertex   4.000000e-02 -6.499801e-02 -3.155160e-01
      vertex   8.090474e-02 -8.732765e-02 -3.155160e-01
    endloop
  endfacet
  facet normal 0.000000e+00 0.000000e+00 1.000000e+00
    outer loop
      vertex   8.090474e-02 -8.732765e-02 -3.155160e-01
      vertex   4.000000e-02 -6.499801e-02 -3.155160e-01
      vertex   3.500000e-02 -6.499801e-02 -3.155160e-01
    endloop
  endfacet
  facet normal 0.000000e+00 0.000000e+00 1.000000e+00
    outer loop
      vertex   8.090474e-02 -8.732765e-02 -3.155160e-01
      vertex   3.500000e-02 -6.499801e-02 -3.155160e-01
      vertex   -4.128628e-02 -8.732765e-02 -3.155160e-01
    endloop
  endfacet
  facet normal 0.000000e+00 0.000000e+00 1.000000e+00
    outer loop
      vertex   -3.000000e-02 -3.500000e-02 -3.155160e-01
      vertex   -3.000000e-02 -6.499801e-02 -3.155160e-01
      vertex   3.500000e-02 -3.500000e-02 -3.155160e-01
    endloop
  endfacet
  facet normal -5.678727e-16 -1.000000e+00 -0.000000e+00
    outer loop
      vertex   8.090474e-02 -8.732765e-02 -3.155160e-01
      vertex   -4.128628e-02 -8.732765e-02 -3.155160e-01
      vertex   8.090474e-02 -8.732765e-02 -3.255160e-01
    endloop
  endfacet
  facet normal -5.678727e-16 -1.000000e+00 0.000000e+00
    outer loop
      vertex   8.090474e-02 -8.732765e-02 -3.255160e-01
      vertex   -4.128628e-02 -8.732765e-02 -3.155160e-01
      vertex   -4.128628e-02 -8.732765e-02 -3.255160e-01
    endloop
  endfacet
  facet normal 1.000000e+00 -3.717830e-16 0.000000e+00
    outer loop
      vertex   8.090474e-02 -1.267235e-02 -3.155160e-01
      vertex   8.090474e-02 -8.732765e-02 -3.155160e-01
      vertex   8.090474e-02 -1.267235e-02 -3.255160e-01
    endloop
  endfacet
  facet normal 1.000000e+00 -3.717830e-16 0.000000e+00
    outer loop
      vertex   8.090474e-02 -1.267235e-02 -3.255160e-01
      vertex   8.090474e-02 -8.732765e-02 -3.155160e-01
      vertex   8.090474e-02 -8.732765e-02 -3.255160e-01
    endloop
  endfacet
  facet normal 6.956440e-16 1.000000e+00 0.000000e+00
    outer loop
      vertex   -4.128628e-02 -1.267235e-02 -3.155160e-01
      vertex   8.090474e-02 -1.267235e-02 -3.155160e-01
      vertex   -4.128628e-02 -1.267235e-02 -3.255160e-01
    endloop
  endfacet
  facet normal 6.956440e-16 1.000000e+00 0.000000e+00
    outer loop
      vertex   -4.128628e-02 -1.267235e-02 -3.255160e-01
      vertex   8.090474e-02 -1.267235e-02 -3.155160e-01
      vertex   8.090474e-02 -1.267235e-02 -3.255160e-01
    endloop
  endfacet
  facet normal -1.000000e+00 7.435660e-16 0.000000e+00
    outer loop
      vertex   -4.128628e-02 -8.732765e-02 -3.155160e-01
      vertex   -4.128628e-02 -1.267235e-02 -3.155160e-01
      vertex   -4.128628e-02 -8.732765e-02 -3.255160e-01
    endloop
  endfacet
  facet normal -1.000000e+00 7.435660e-16 0.000000e+00
    outer loop
      vertex   -4.128628e-02 -8.732765e-02 -3.255160e-01
      vertex   -4.128628e-02 -1.267235e-02 -3.155160e-01
      vertex   -4.128628e-02 -1.267235e-02 -3.255160e-01
    endloop
  endfacet
  facet normal 0.000000e+00 -0.000000e+00 -1.000000e+00
    outer loop
      vertex   -4.128628e-02 -1.267235e-02 -3.255160e-01
      vertex   8.090474e-02 -1.267235e-02 -3.255160e-01
      vertex   -4.128628e-02 -8.732765e-02 -3.255160e-01
    endloop
  endfacet
  facet normal 0.000000e+00 0.000000e+00 -1.000000e+00
    outer loop
      vertex   -4.128628e-02 -8.732765e-02 -3.255160e-01
      vertex   8.090474e-02 -1.267235e-02 -3.255160e-01
      vertex   8.090474e-02 -8.732765e-02 -3.255160e-01
    endloop
  endfacet
  facet normal -0.000000e+00 -0.000000e+00 -1.000000e+00
    outer loop
      vertex   -3.000000e-02 -4.881399e-02 -2.752580e-01
      vertex   -3.000000e-02 -5.118601e-02 -2.752580e-01
      vertex   -3.500000e-02 -4.881399e-02 -2.752580e-01
    endloop
  endfacet
  facet normal 0.000000e+00 0.000000e+00 -1.000000e+00
    outer loop
      vertex   -3.500000e-02 -4.881399e-02 -2.752580e-01
      vertex   -3.000000e-02 -5.118601e-02 -2.752580e-01
      vertex   -3.500000e-02 -5.118601e-02 -2.752580e-01
    endloop
  endfacet
  facet normal 0.000000e+00 4.602026e-01 -8.878139e-01
    outer loop
      vertex   -3.500000e-02 -5.118601e-02 -2.752580e-01
      vertex   -3.000000e-02 -5.118601e-02 -2.752580e-01
      vertex   -3.500000e-02 -5.334462e-02 -2.763769e-01
    endloop
  endfacet
  facet normal 0.000000e+00 4.602026e-01 -8.878139e-01
    outer loop
      vertex   -3.500000e-02 -5.334462e-02 -2.763769e-01
      vertex   -3.000000e-02 -5.118601e-02 -2.752580e-01
      vertex   -3.000000e-02 -5.334462e-02 -2.763769e-01
    endloop
  endfacet
  facet normal 0.000000e+00 8.206070e-01 -5.714929e-01
    outer loop
      vertex   -3.500000e-02 -5.334462e-02 -2.763769e-01
      vertex   -3.000000e-02 -5.334462e-02 -2.763769e-01
      vertex   -3.000000e-02 -5.473414e-02 -2.783721e-01
    endloop
  endfacet
  facet normal 0.000000e+00 8.206070e-01 -5.714929e-01
    outer loop
      vertex   -3.500000e-02 -5.334462e-02 -2.763769e-01
      vertex   -3.000000e-02 -5.473414e-02 -2.783721e-01
      vertex   -3.500000e-02 -5.473414e-02 -2.783721e-01
    endloop
  endfacet
  facet normal 0.000000e+00 9.923126e-01 -1.237569e-01
    outer loop
      vertex   -3.500000e-02 -5.473414e-02 -2.783721e-01
      vertex   -3.000000e-02 -5.473414e-02 -2.783721e-01
      vertex   -3.000000e-02 -5.503504e-02 -2.807848e-01
    endloop
  endfacet
  facet normal 0.000000e+00 9.923126e-01 -1.237569e-01
    outer loop
      vertex   -3.500000e-02 -5.473414e-02 -2.783721e-01
      vertex   -3.000000e-02 -5.503504e-02 -2.807848e-01
      vertex   -3.500000e-02 -5.503504e-02 -2.807848e-01
    endloop
  endfacet
  facet normal -0.000000e+00 9.358355e-01 3.524370e-01
    outer loop
      vertex   -3.500000e-02 -5.503504e-02 -2.807848e-01
      vertex   -3.000000e-02 -5.503504e-02 -2.807848e-01
      vertex   -3.000000e-02 -5.417813e-02 -2.830602e-01
    endloop
  endfacet
  facet normal 0.000000e+00 9.358355e-01 3.524370e-01
    outer loop
      vertex   -3.500000e-02 -5.503504e-02 -2.807848e-01
      vertex   -3.000000e-02 -5.417813e-02 -2.830602e-01
      vertex   -3.500000e-02 -5.417813e-02 -2.830602e-01
    endloop
  endfacet
  facet normal -0.000000e+00 6.641628e-01 7.475879e-01
    outer loop
      vertex   -3.500000e-02 -5.417813e-02 -2.830602e-01
      vertex   -3.000000e-02 -5.417813e-02 -2.830602e-01
      vertex   -3.000000e-02 -5.236046e-02 -2.846750e-01
    endloop
  endfacet
  facet normal 0.000000e+00 6.641628e-01 7.475879e-01
    outer loop
      vertex   -3.500000e-02 -5.417813e-02 -2.830602e-01
      vertex   -3.000000e-02 -5.236046e-02 -2.846750e-01
      vertex   -3.500000e-02 -5.236046e-02 -2.846750e-01
    endloop
  endfacet
  facet normal -0.000000e+00 2.397657e-01 9.708308e-01
    outer loop
      vertex   -3.500000e-02 -5.236046e-02 -2.846750e-01
      vertex   -3.000000e-02 -5.236046e-02 -2.846750e-01
      vertex   -3.000000e-02 -5.000000e-02 -2.852580e-01
    endloop
  endfacet
  facet normal 0.000000e+00 2.397657e-01 9.708308e-01
    outer loop
      vertex   -3.500000e-02 -5.236046e-02 -2.846750e-01
      vertex   -3.000000e-02 -5.000000e-02 -2.852580e-01
      vertex   -3.500000e-02 -5.000000e-02 -2.852580e-01
    endloop
  endfacet
  facet normal 0.000000e+00 -2.397657e-01 9.708308e-01
    outer loop
      vertex   -3.500000e-02 -5.000000e-02 -2.852580e-01
      vertex   -3.000000e-02 -5.000000e-02 -2.852580e-01
      vertex   -3.000000e-02 -4.763954e-02 -2.846750e-01
    endloop
  endfacet
  facet normal 0.000000e+00 -2.397657e-01 9.708308e-01
    outer loop
      vertex   -3.500000e-02 -5.000000e-02 -2.852580e-01
      vertex   -3.000000e-02 -4.763954e-02 -2.846750e-01
      vertex   -3.500000e-02 -4.763954e-02 -2.846750e-01
    endloop
  endfacet
  facet normal 0.000000e+00 -6.641628e-01 7.475879e-01
    outer loop
      vertex   -3.500000e-02 -4.763954e-02 -2.846750e-01
      vertex   -3.000000e-02 -4.763954e-02 -2.846750e-01
      vertex   -3.000000e-02 -4.582187e-02 -2.830602e-01
    endloop
  endfacet
  facet normal 0.000000e+00 -6.641628e-01 7.475879e-01
    outer loop
      vertex   -3.500000e-02 -4.763954e-02 -2.846750e-01
      vertex   -3.000000e-02 -4.582187e-02 -2.830602e-01
      vertex   -3.500000e-02 -4.582187e-02 -2.830602e-01
    endloop
  endfacet
  facet normal 0.000000e+00 -9.358355e-01 3.524370e-01
    outer loop
      vertex   -3.500000e-02 -4.582187e-02 -2.830602e-01
      vertex   -3.000000e-02 -4.582187e-02 -2.830602e-01
      vertex   -3.000000e-02 -4.496496e-02 -2.807848e-01
    endloop
  endfacet
  facet normal 0.000000e+00 -9.358355e-01 3.524370e-01
    outer loop
      vertex   -3.500000e-02 -4.582187e-02 -2.830602e-01
      vertex   -3.000000e-02 -4.496496e-02 -2.807848e-01
      vertex   -3.500000e-02 -4.496496e-02 -2.807848e-01
    endloop
  endfacet
  facet normal 0.000000e+00 -9.923126e-01 -1.237569e-01
    outer loop
      vertex   -3.500000e-02 -4.496496e-02 -2.807848e-01
      vertex   -3.000000e-02 -4.496496e-02 -2.807848e-01
      vertex   -3.000000e-02 -4.526586e-02 -2.783721e-01
    endloop
  endfacet
  facet normal 0.000000e+00 -9.923126e-01 -1.237569e-01
    outer loop
      vertex   -3.500000e-02 -4.496496e-02 -2.807848e-01
      vertex   -3.000000e-02 -4.526586e-02 -2.783721e-01
      vertex   -3.500000e-02 -4.526586e-02 -2.783721e-01
    endloop
  endfacet
  facet normal 0.000000e+00 -8.206070e-01 -5.714929e-01
    outer loop
      vertex   -3.500000e-02 -4.526586e-02 -2.783721e-01
      vertex   -3.000000e-02 -4.526586e-02 -2.783721e-01
      vertex   -3.000000e-02 -4.665538e-02 -2.763769e-01
    endloop
  endfacet
  facet normal 0.000000e+00 -8.206070e-01 -5.714929e-01
    outer loop
      vertex   -3.500000e-02 -4.526586e-02 -2.783721e-01
      vertex   -3.000000e-02 -4.665538e-02 -2.763769e-01
      vertex   -3.500000e-02 -4.665538e-02 -2.763769e-01
    endloop
  endfacet
  facet normal 0.000000e+00 -4.602026e-01 -8.878139e-01
    outer loop
      vertex   -3.500000e-02 -4.665538e-02 -2.763769e-01
      vertex   -3.000000e-02 -4.665538e-02 -2.763769e-01
      vertex   -3.500000e-02 -4.881399e-02 -2.752580e-01
    endloop
  endfacet
  facet normal -1.277319e-15 -4.602026e-01 -8.878139e-01
    outer loop
      vertex   -3.500000e-02 -4.881399e-02 -2.752580e-01
      vertex   -3.000000e-02 -4.665538e-02 -2.763769e-01
      vertex   -3.000000e-02 -4.881399e-02 -2.752580e-01
    endloop
  endfacet
  facet normal -2.775558e-15 -1.000000e+00 0.000000e+00
    outer loop
      vertex   -3.000000e-02 -6.499801e-02 -3.155160e-01
      vertex   -3.000000e-02 -6.499801e-02 -2.799433e-01
      vertex   -3.500000e-02 -6.499801e-02 -3.155160e-01
    endloop
  endfacet
  facet normal 0.000000e+00 -1.000000e+00 -3.901244e-16
    outer loop
      vertex   -3.500000e-02 -6.499801e-02 -3.155160e-01
      vertex   -3.000000e-02 -6.499801e-02 -2.799433e-01
      vertex   -3.500000e-02 -6.499801e-02 -2.799433e-01
    endloop
  endfacet
  facet normal 0.000000e+00 1.000000e+00 1.964116e-16
    outer loop
      vertex   -3.000000e-02 -3.500000e-02 -2.801877e-01
      vertex   -3.000000e-02 -3.500000e-02 -3.155160e-01
      vertex   -3.500000e-02 -3.500000e-02 -2.801877e-01
    endloop
  endfacet
  facet normal 0.000000e+00 1.000000e+00 1.964116e-16
    outer loop
      vertex   -3.500000e-02 -3.500000e-02 -2.801877e-01
      vertex   -3.000000e-02 -3.500000e-02 -3.155160e-01
      vertex   -3.500000e-02 -3.500000e-02 -3.155160e-01
    endloop
  endfacet
  facet normal 0.000000e+00 -9.714499e-01 2.372449e-01
    outer loop
      vertex   -3.500000e-02 -6.499801e-02 -2.799433e-01
      vertex   -3.000000e-02 -6.499801e-02 -2.799433e-01
      vertex   -3.500000e-02 -6.342233e-02 -2.734913e-01
    endloop
  endfacet
  facet normal 0.000000e+00 -9.714499e-01 2.372449e-01
    outer loop
      vertex   -3.500000e-02 -6.342233e-02 -2.734913e-01
      vertex   -3.000000e-02 -6.499801e-02 -2.799433e-01
      vertex   -3.000000e-02 -6.342233e-02 -2.734913e-01
    endloop
  endfacet
  facet normal 0.000000e+00 -7.737859e-01 6.334472e-01
    outer loop
      vertex   -3.500000e-02 -6.342233e-02 -2.734913e-01
      vertex   -3.000000e-02 -6.342233e-02 -2.734913e-01
      vertex   -3.500000e-02 -5.921523e-02 -2.683522e-01
    endloop
  endfacet
  facet normal 7.032677e-15 -7.737859e-01 6.334472e-01
    outer loop
      vertex   -3.500000e-02 -5.921523e-02 -2.683522e-01
      vertex   -3.000000e-02 -6.342233e-02 -2.734913e-01
      vertex   -3.000000e-02 -5.921523e-02 -2.683522e-01
    endloop
  endfacet
  facet normal 1.005267e-14 -4.244232e-01 9.054639e-01
    outer loop
      vertex   -3.500000e-02 -5.921523e-02 -2.683522e-01
      vertex   -3.000000e-02 -5.921523e-02 -2.683522e-01
      vertex   -3.500000e-02 -5.320152e-02 -2.655333e-01
    endloop
  endfacet
  facet normal 0.000000e+00 -4.244232e-01 9.054639e-01
    outer loop
      vertex   -3.500000e-02 -5.320152e-02 -2.655333e-01
      vertex   -3.000000e-02 -5.921523e-02 -2.683522e-01
      vertex   -3.000000e-02 -5.320152e-02 -2.655333e-01
    endloop
  endfacet
  facet normal -0.000000e+00 8.146468e-03 9.999668e-01
    outer loop
      vertex   -3.500000e-02 -5.320152e-02 -2.655333e-01
      vertex   -3.000000e-02 -5.320152e-02 -2.655333e-01
      vertex   -3.500000e-02 -4.656015e-02 -2.655874e-01
    endloop
  endfacet
  facet normal -0.000000e+00 8.146468e-03 9.999668e-01
    outer loop
      vertex   -3.500000e-02 -4.656015e-02 -2.655874e-01
      vertex   -3.000000e-02 -5.320152e-02 -2.655333e-01
      vertex   -3.000000e-02 -4.656015e-02 -2.655874e-01
    endloop
  endfacet
  facet normal -0.000000e+00 4.391191e-01 8.984289e-01
    outer loop
      vertex   -3.500000e-02 -4.656015e-02 -2.655874e-01
      vertex   -3.000000e-02 -4.656015e-02 -2.655874e-01
      vertex   -3.500000e-02 -4.059316e-02 -2.685039e-01
    endloop
  endfacet
  facet normal -0.000000e+00 4.391191e-01 8.984289e-01
    outer loop
      vertex   -3.500000e-02 -4.059316e-02 -2.685039e-01
      vertex   -3.000000e-02 -4.656015e-02 -2.655874e-01
      vertex   -3.000000e-02 -4.059316e-02 -2.685039e-01
    endloop
  endfacet
  facet normal -0.000000e+00 7.840036e-01 6.207563e-01
    outer loop
      vertex   -3.500000e-02 -4.059316e-02 -2.685039e-01
      vertex   -3.000000e-02 -4.059316e-02 -2.685039e-01
      vertex   -3.500000e-02 -3.647036e-02 -2.737109e-01
    endloop
  endfacet
  facet normal -0.000000e+00 7.840036e-01 6.207563e-01
    outer loop
      vertex   -3.500000e-02 -3.647036e-02 -2.737109e-01
      vertex   -3.000000e-02 -4.059316e-02 -2.685039e-01
      vertex   -3.000000e-02 -3.647036e-02 -2.737109e-01
    endloop
  endfacet
  facet normal -0.000000e+00 9.751862e-01 2.213862e-01
    outer loop
      vertex   -3.500000e-02 -3.647036e-02 -2.737109e-01
      vertex   -3.000000e-02 -3.647036e-02 -2.737109e-01
      vertex   -3.500000e-02 -3.500000e-02 -2.801877e-01
    endloop
  endfacet
  facet normal -0.000000e+00 9.751862e-01 2.213862e-01
    outer loop
      vertex   -3.500000e-02 -3.500000e-02 -2.801877e-01
      vertex   -3.000000e-02 -3.647036e-02 -2.737109e-01
      vertex   -3.000000e-02 -3.500000e-02 -2.801877e-01
    endloop
  endfacet
  facet normal 1.000000e+00 -1.434015e-15 3.342132e-16
    outer loop
      vertex   -3.000000e-02 -4.665538e-02 -2.763769e-01
      vertex   -3.000000e-02 -4.656015e-02 -2.655874e-01
      vertex   -3.000000e-02 -4.881399e-02 -2.752580e-01
    endloop
  endfacet
  facet normal 1.000000e+00 0.000000e+00 -0.000000e+00
    outer loop
      vertex   -3.000000e-02 -4.881399e-02 -2.752580e-01
      vertex   -3.000000e-02 -4.656015e-02 -2.655874e-01
      vertex   -3.000000e-02 -5.320152e-02 -2.655333e-01
    endloop
  endfacet
  facet normal 1.000000e+00 0.000000e+00 0.000000e+00
    outer loop
      vertex   -3.000000e-02 -4.881399e-02 -2.752580e-01
      vertex   -3.000000e-02 -5.320152e-02 -2.655333e-01
      vertex   -3.000000e-02 -5.118601e-02 -2.752580e-01
    endloop
  endfacet
  facet normal 1.000000e+00 0.000000e+00 0.000000e+00
    outer loop
      vertex   -3.000000e-02 -5.118601e-02 -2.752580e-01
      vertex   -3.000000e-02 -5.320152e-02 -2.655333e-01
      vertex   -3.000000e-02 -5.334462e-02 -2.763769e-01
    endloop
  endfacet
  facet normal 1.000000e+00 -5.805134e-16 7.661219e-18
    outer loop
      vertex   -3.000000e-02 -5.334462e-02 -2.763769e-01
      vertex   -3.000000e-02 -5.320152e-02 -2.655333e-01
      vertex   -3.000000e-02 -5.921523e-02 -2.683522e-01
    endloop
  endfacet
  facet normal 1.000000e+00 -1.520483e-15 -6.799831e-16
    outer loop
      vertex   -3.000000e-02 -5.334462e-02 -2.763769e-01
      vertex   -3.000000e-02 -5.921523e-02 -2.683522e-01
      vertex   -3.000000e-02 -5.473414e-02 -2.783721e-01
    endloop
  endfacet
  facet normal 1.000000e+00 -1.066635e-15 -4.770154e-16
    outer loop
      vertex   -3.000000e-02 -5.473414e-02 -2.783721e-01
      vertex   -3.000000e-02 -5.921523e-02 -2.683522e-01
      vertex   -3.000000e-02 -6.342233e-02 -2.734913e-01
    endloop
  endfacet
  facet normal 1.000000e+00 -7.463664e-16 9.308360e-17
    outer loop
      vertex   -3.000000e-02 -5.473414e-02 -2.783721e-01
      vertex   -3.000000e-02 -6.342233e-02 -2.734913e-01
      vertex   -3.000000e-02 -5.503504e-02 -2.807848e-01
    endloop
  endfacet
  facet normal 1.000000e+00 -6.823920e-16 1.666520e-16
    outer loop
      vertex   -3.000000e-02 -5.503504e-02 -2.807848e-01
      vertex   -3.000000e-02 -6.342233e-02 -2.734913e-01
      vertex   -3.000000e-02 -6.499801e-02 -2.799433e-01
    endloop
  endfacet
  facet normal 1.000000e+00 -7.193516e-16 -2.709089e-16
    outer loop
      vertex   -3.000000e-02 -5.503504e-02 -2.807848e-01
      vertex   -3.000000e-02 -6.499801e-02 -2.799433e-01
      vertex   -3.000000e-02 -5.417813e-02 -2.830602e-01
    endloop
  endfacet
  facet normal 1.000000e+00 -6.413100e-16 0.000000e+00
    outer loop
      vertex   -3.000000e-02 -5.417813e-02 -2.830602e-01
      vertex   -3.000000e-02 -6.499801e-02 -2.799433e-01
      vertex   -3.000000e-02 -6.499801e-02 -3.155160e-01
    endloop
  endfacet
  facet normal 1.000000e+00 -1.619129e-15 3.259782e-16
    outer loop
      vertex   -3.000000e-02 -5.417813e-02 -2.830602e-01
      vertex   -3.000000e-02 -6.499801e-02 -3.155160e-01
      vertex   -3.000000e-02 -5.236046e-02 -2.846750e-01
    endloop
  endfacet
  facet normal 1.000000e+00 -7.568869e-17 -3.064697e-16
    outer loop
      vertex   -3.000000e-02 -5.236046e-02 -2.846750e-01
      vertex   -3.000000e-02 -6.499801e-02 -3.155160e-01
      vertex   -3.000000e-02 -5.000000e-02 -2.852580e-01
    endloop
  endfacet
  facet normal 1.000000e+00 -6.939354e-16 -2.283018e-20
    outer loop
      vertex   -3.000000e-02 -5.000000e-02 -2.852580e-01
      vertex   -3.000000e-02 -6.499801e-02 -3.155160e-01
      vertex   -3.000000e-02 -3.500000e-02 -3.155160e-01
    endloop
  endfacet
  facet normal 1.000000e+00 -7.568759e-17 3.064652e-16
    outer loop
      vertex   -3.000000e-02 -5.000000e-02 -2.852580e-01
      vertex   -3.000000e-02 -3.500000e-02 -3.155160e-01
      vertex   -3.000000e-02 -4.763954e-02 -2.846750e-01
    endloop
  endfacet
  facet normal 1.000000e+00 -2.197966e-16 2.474051e-16
    outer loop
      vertex   -3.000000e-02 -4.763954e-02 -2.846750e-01
      vertex   -3.000000e-02 -3.500000e-02 -3.155160e-01
      vertex   -3.000000e-02 -4.582187e-02 -2.830602e-01
    endloop
  endfacet
  facet normal 1.000000e+00 -9.617879e-16 -1.889063e-31
    outer loop
      vertex   -3.000000e-02 -4.582187e-02 -2.830602e-01
      vertex   -3.000000e-02 -3.500000e-02 -3.155160e-01
      vertex   -3.000000e-02 -3.500000e-02 -2.801877e-01
    endloop
  endfacet
  facet normal 1.000000e+00 -6.189234e-16 -1.291693e-15
    outer loop
      vertex   -3.000000e-02 -4.582187e-02 -2.830602e-01
      vertex   -3.000000e-02 -3.500000e-02 -2.801877e-01
      vertex   -3.000000e-02 -4.496496e-02 -2.807848e-01
    endloop
  endfacet
  facet normal 1.000000e+00 -6.869835e-16 -1.559586e-16
    outer loop
      vertex   -3.000000e-02 -4.496496e-02 -2.807848e-01
      vertex   -3.000000e-02 -3.500000e-02 -2.801877e-01
      vertex   -3.000000e-02 -3.647036e-02 -2.737109e-01
    endloop
  endfacet
  facet normal 1.000000e+00 -7.400039e-16 -9.229010e-17
    outer loop
      vertex   -3.000000e-02 -4.496496e-02 -2.807848e-01
      vertex   -3.000000e-02 -3.647036e-02 -2.737109e-01
      vertex   -3.000000e-02 -4.526586e-02 -2.783721e-01
    endloop
  endfacet
  facet normal 1.000000e+00 -1.053204e-15 4.986991e-16
    outer loop
      vertex   -3.000000e-02 -4.526586e-02 -2.783721e-01
      vertex   -3.000000e-02 -3.647036e-02 -2.737109e-01
      vertex   -3.000000e-02 -4.059316e-02 -2.685039e-01
    endloop
  endfacet
  facet normal 1.000000e+00 0.000000e+00 -0.000000e+00
    outer loop
      vertex   -3.000000e-02 -4.526586e-02 -2.783721e-01
      vertex   -3.000000e-02 -4.059316e-02 -2.685039e-01
      vertex   -3.000000e-02 -4.665538e-02 -2.763769e-01
    endloop
  endfacet
  facet normal 1.000000e+00 -4.224522e-16 3.252856e-16
    outer loop
      vertex   -3.000000e-02 -4.665538e-02 -2.763769e-01
      vertex   -3.000000e-02 -4.059316e-02 -2.685039e-01
      vertex   -3.000000e-02 -4.656015e-02 -2.655874e-01
    endloop
  endfacet
  facet normal -1.000000e+00 0.000000e+00 0.000000e+00
    outer loop
      vertex   -3.500000e-02 -4.881399e-02 -2.752580e-01
      vertex   -3.500000e-02 -5.118601e-02 -2.752580e-01
      vertex   -3.500000e-02 -5.320152e-02 -2.655333e-01
    endloop
  endfacet
  facet normal -1.000000e+00 0.000000e+00 -0.000000e+00
    outer loop
      vertex   -3.500000e-02 -5.320152e-02 -2.655333e-01
      vertex   -3.500000e-02 -5.118601e-02 -2.752580e-01
      vertex   -3.500000e-02 -5.334462e-02 -2.763769e-01
    endloop
  endfacet
  facet normal -1.000000e+00 1.161027e-15 -1.532244e-17
    outer loop
      vertex   -3.500000e-02 -5.320152e-02 -2.655333e-01
      vertex   -3.500000e-02 -5.334462e-02 -2.763769e-01
      vertex   -3.500000e-02 -5.921523e-02 -2.683522e-01
    endloop
  endfacet
  facet normal -1.000000e+00 3.040966e-15 1.359966e-15
    outer loop
      vertex   -3.500000e-02 -5.921523e-02 -2.683522e-01
      vertex   -3.500000e-02 -5.334462e-02 -2.763769e-01
      vertex   -3.500000e-02 -5.473414e-02 -2.783721e-01
    endloop
  endfacet
  facet normal -1.000000e+00 0.000000e+00 -0.000000e+00
    outer loop
      vertex   -3.500000e-02 -5.921523e-02 -2.683522e-01
      vertex   -3.500000e-02 -5.473414e-02 -2.783721e-01
      vertex   -3.500000e-02 -6.342233e-02 -2.734913e-01
    endloop
  endfacet
  facet normal -1.000000e+00 0.000000e+00 0.000000e+00
    outer loop
      vertex   -3.500000e-02 -6.342233e-02 -2.734913e-01
      vertex   -3.500000e-02 -5.473414e-02 -2.783721e-01
      vertex   -3.500000e-02 -5.503504e-02 -2.807848e-01
    endloop
  endfacet
  facet normal -1.000000e+00 0.000000e+00 -0.000000e+00
    outer loop
      vertex   -3.500000e-02 -6.342233e-02 -2.734913e-01
      vertex   -3.500000e-02 -5.503504e-02 -2.807848e-01
      vertex   -3.500000e-02 -6.499801e-02 -2.799433e-01
    endloop
  endfacet
  facet normal -1.000000e+00 0.000000e+00 0.000000e+00
    outer loop
      vertex   -3.500000e-02 -6.499801e-02 -2.799433e-01
      vertex   -3.500000e-02 -5.503504e-02 -2.807848e-01
      vertex   -3.500000e-02 -5.417813e-02 -2.830602e-01
    endloop
  endfacet
  facet normal -1.000000e+00 0.000000e+00 0.000000e+00
    outer loop
      vertex   -3.500000e-02 -6.499801e-02 -2.799433e-01
      vertex   -3.500000e-02 -5.417813e-02 -2.830602e-01
      vertex   -3.500000e-02 -6.499801e-02 -3.155160e-01
    endloop
  endfacet
  facet normal -1.000000e+00 2.945184e-15 -9.818437e-16
    outer loop
      vertex   -3.500000e-02 -6.499801e-02 -3.155160e-01
      vertex   -3.500000e-02 -5.417813e-02 -2.830602e-01
      vertex   -3.500000e-02 -5.236046e-02 -2.846750e-01
    endloop
  endfacet
  facet normal -1.000000e+00 5.045913e-17 2.043131e-16
    outer loop
      vertex   -3.500000e-02 -6.499801e-02 -3.155160e-01
      vertex   -3.500000e-02 -5.236046e-02 -2.846750e-01
      vertex   -3.500000e-02 -5.000000e-02 -2.852580e-01
    endloop
  endfacet
  facet normal -1.000000e+00 4.626236e-16 1.522012e-20
    outer loop
      vertex   -3.500000e-02 -6.499801e-02 -3.155160e-01
      vertex   -3.500000e-02 -5.000000e-02 -2.852580e-01
      vertex   -3.500000e-02 -3.500000e-02 -3.155160e-01
    endloop
  endfacet
  facet normal -1.000000e+00 5.045840e-17 -2.043102e-16
    outer loop
      vertex   -3.500000e-02 -3.500000e-02 -3.155160e-01
      vertex   -3.500000e-02 -5.000000e-02 -2.852580e-01
      vertex   -3.500000e-02 -4.763954e-02 -2.846750e-01
    endloop
  endfacet
  facet normal -1.000000e+00 1.465311e-16 -1.649367e-16
    outer loop
      vertex   -3.500000e-02 -3.500000e-02 -3.155160e-01
      vertex   -3.500000e-02 -4.763954e-02 -2.846750e-01
      vertex   -3.500000e-02 -4.582187e-02 -2.830602e-01
    endloop
  endfacet
  facet normal -1.000000e+00 6.411920e-16 1.259375e-31
    outer loop
      vertex   -3.500000e-02 -3.500000e-02 -3.155160e-01
      vertex   -3.500000e-02 -4.582187e-02 -2.830602e-01
      vertex   -3.500000e-02 -3.500000e-02 -2.801877e-01
    endloop
  endfacet
  facet normal -1.000000e+00 -1.869677e-16 3.119974e-15
    outer loop
      vertex   -3.500000e-02 -3.500000e-02 -2.801877e-01
      vertex   -3.500000e-02 -4.582187e-02 -2.830602e-01
      vertex   -3.500000e-02 -4.496496e-02 -2.807848e-01
    endloop
  endfacet
  facet normal -1.000000e+00 -0.000000e+00 0.000000e+00
    outer loop
      vertex   -3.500000e-02 -3.500000e-02 -2.801877e-01
      vertex   -3.500000e-02 -4.496496e-02 -2.807848e-01
      vertex   -3.500000e-02 -3.647036e-02 -2.737109e-01
    endloop
  endfacet
  facet normal -1.000000e+00 0.000000e+00 0.000000e+00
    outer loop
      vertex   -3.500000e-02 -3.647036e-02 -2.737109e-01
      vertex   -3.500000e-02 -4.496496e-02 -2.807848e-01
      vertex   -3.500000e-02 -4.526586e-02 -2.783721e-01
    endloop
  endfacet
  facet normal -1.000000e+00 -0.000000e+00 0.000000e+00
    outer loop
      vertex   -3.500000e-02 -3.647036e-02 -2.737109e-01
      vertex   -3.500000e-02 -4.526586e-02 -2.783721e-01
      vertex   -3.500000e-02 -4.059316e-02 -2.685039e-01
    endloop
  endfacet
  facet normal -1.000000e+00 0.000000e+00 0.000000e+00
    outer loop
      vertex   -3.500000e-02 -4.059316e-02 -2.685039e-01
      vertex   -3.500000e-02 -4.526586e-02 -2.783721e-01
      vertex   -3.500000e-02 -4.665538e-02 -2.763769e-01
    endloop
  endfacet
  facet normal -1.000000e+00 8.449044e-16 -6.505713e-16
    outer loop
      vertex   -3.500000e-02 -4.059316e-02 -2.685039e-01
      vertex   -3.500000e-02 -4.665538e-02 -2.763769e-01
      vertex   -3.500000e-02 -4.656015e-02 -2.655874e-01
    endloop
  endfacet
  facet normal -1.000000e+00 2.868029e-15 -6.684264e-16
    outer loop
      vertex   -3.500000e-02 -4.656015e-02 -2.655874e-01
      vertex   -3.500000e-02 -4.665538e-02 -2.763769e-01
      vertex   -3.500000e-02 -4.881399e-02 -2.752580e-01
    endloop
  endfacet
  facet normal -1.000000e+00 -0.000000e+00 0.000000e+00
    outer loop
      vertex   -3.500000e-02 -4.656015e-02 -2.655874e-01
      vertex   -3.500000e-02 -4.881399e-02 -2.752580e-01
      vertex   -3.500000e-02 -5.320152e-02 -2.655333e-01
    endloop
  endfacet
  facet normal -0.000000e+00 -4.602026e-01 -8.878139e-01
    outer loop
      vertex   4.000000e-02 -4.881399e-02 -2.752580e-01
      vertex   3.500000e-02 -4.881399e-02 -2.752580e-01
      vertex   4.000000e-02 -4.665538e-02 -2.763769e-01
    endloop
  endfacet
  facet normal -1.277319e-15 -4.602026e-01 -8.878139e-01
    outer loop
      vertex   4.000000e-02 -4.665538e-02 -2.763769e-01
      vertex   3.500000e-02 -4.881399e-02 -2.752580e-01
      vertex   3.500000e-02 -4.665538e-02 -2.763769e-01
    endloop
  endfacet
  facet normal -2.277642e-15 -8.206070e-01 -5.714929e-01
    outer loop
      vertex   4.000000e-02 -4.665538e-02 -2.763769e-01
      vertex   3.500000e-02 -4.665538e-02 -2.763769e-01
      vertex   3.500000e-02 -4.526586e-02 -2.783721e-01
    endloop
  endfacet
  facet normal -1.114800e-15 -8.206070e-01 -5.714929e-01
    outer loop
      vertex   4.000000e-02 -4.665538e-02 -2.763769e-01
      vertex   3.500000e-02 -4.526586e-02 -2.783721e-01
      vertex   4.000000e-02 -4.526586e-02 -2.783721e-01
    endloop
  endfacet
  facet normal -1.377110e-15 -9.923126e-01 -1.237569e-01
    outer loop
      vertex   4.000000e-02 -4.526586e-02 -2.783721e-01
      vertex   3.500000e-02 -4.526586e-02 -2.783721e-01
      vertex   3.500000e-02 -4.496496e-02 -2.807848e-01
    endloop
  endfacet
  facet normal -2.752163e-15 -9.923126e-01 -1.237569e-01
    outer loop
      vertex   4.000000e-02 -4.526586e-02 -2.783721e-01
      vertex   3.500000e-02 -4.496496e-02 -2.807848e-01
      vertex   4.000000e-02 -4.496496e-02 -2.807848e-01
    endloop
  endfacet
  facet normal -2.597465e-15 -9.358355e-01 3.524370e-01
    outer loop
      vertex   4.000000e-02 -4.496496e-02 -2.807848e-01
      vertex   3.500000e-02 -4.496496e-02 -2.807848e-01
      vertex   3.500000e-02 -4.582187e-02 -2.830602e-01
    endloop
  endfacet
  facet normal -1.323825e-15 -9.358355e-01 3.524370e-01
    outer loop
      vertex   4.000000e-02 -4.496496e-02 -2.807848e-01
      vertex   3.500000e-02 -4.582187e-02 -2.830602e-01
      vertex   4.000000e-02 -4.582187e-02 -2.830602e-01
    endloop
  endfacet
  facet normal -9.217111e-16 -6.641628e-01 7.475879e-01
    outer loop
      vertex   4.000000e-02 -4.582187e-02 -2.830602e-01
      vertex   3.500000e-02 -4.582187e-02 -2.830602e-01
      vertex   3.500000e-02 -4.763954e-02 -2.846750e-01
    endloop
  endfacet
  facet normal -9.057750e-16 -6.641628e-01 7.475879e-01
    outer loop
      vertex   4.000000e-02 -4.582187e-02 -2.830602e-01
      vertex   3.500000e-02 -4.763954e-02 -2.846750e-01
      vertex   4.000000e-02 -4.763954e-02 -2.846750e-01
    endloop
  endfacet
  facet normal -3.327417e-16 -2.397657e-01 9.708308e-01
    outer loop
      vertex   4.000000e-02 -4.763954e-02 -2.846750e-01
      vertex   3.500000e-02 -4.763954e-02 -2.846750e-01
      vertex   3.500000e-02 -5.000000e-02 -2.852580e-01
    endloop
  endfacet
  facet normal -3.309563e-16 -2.397657e-01 9.708308e-01
    outer loop
      vertex   4.000000e-02 -4.763954e-02 -2.846750e-01
      vertex   3.500000e-02 -5.000000e-02 -2.852580e-01
      vertex   4.000000e-02 -5.000000e-02 -2.852580e-01
    endloop
  endfacet
  facet normal 3.327417e-16 2.397657e-01 9.708308e-01
    outer loop
      vertex   4.000000e-02 -5.000000e-02 -2.852580e-01
      vertex   3.500000e-02 -5.000000e-02 -2.852580e-01
      vertex   3.500000e-02 -5.236046e-02 -2.846750e-01
    endloop
  endfacet
  facet normal 3.309563e-16 2.397657e-01 9.708308e-01
    outer loop
      vertex   4.000000e-02 -5.000000e-02 -2.852580e-01
      vertex   3.500000e-02 -5.236046e-02 -2.846750e-01
      vertex   4.000000e-02 -5.236046e-02 -2.846750e-01
    endloop
  endfacet
  facet normal 9.217111e-16 6.641628e-01 7.475879e-01
    outer loop
      vertex   4.000000e-02 -5.236046e-02 -2.846750e-01
      vertex   3.500000e-02 -5.236046e-02 -2.846750e-01
      vertex   3.500000e-02 -5.417813e-02 -2.830602e-01
    endloop
  endfacet
  facet normal 9.406125e-16 6.641628e-01 7.475879e-01
    outer loop
      vertex   4.000000e-02 -5.236046e-02 -2.846750e-01
      vertex   3.500000e-02 -5.417813e-02 -2.830602e-01
      vertex   4.000000e-02 -5.417813e-02 -2.830602e-01
    endloop
  endfacet
  facet normal 1.298733e-15 9.358355e-01 3.524370e-01
    outer loop
      vertex   4.000000e-02 -5.417813e-02 -2.830602e-01
      vertex   3.500000e-02 -5.417813e-02 -2.830602e-01
      vertex   3.500000e-02 -5.503504e-02 -2.807848e-01
    endloop
  endfacet
  facet normal 1.288988e-15 9.358355e-01 3.524370e-01
    outer loop
      vertex   4.000000e-02 -5.417813e-02 -2.830602e-01
      vertex   3.500000e-02 -5.503504e-02 -2.807848e-01
      vertex   4.000000e-02 -5.503504e-02 -2.807848e-01
    endloop
  endfacet
  facet normal 1.377110e-15 9.923126e-01 -1.237569e-01
    outer loop
      vertex   4.000000e-02 -5.503504e-02 -2.807848e-01
      vertex   3.500000e-02 -5.503504e-02 -2.807848e-01
      vertex   3.500000e-02 -5.473414e-02 -2.783721e-01
    endloop
  endfacet
  facet normal 1.376081e-15 9.923126e-01 -1.237569e-01
    outer loop
      vertex   4.000000e-02 -5.503504e-02 -2.807848e-01
      vertex   3.500000e-02 -5.473414e-02 -2.783721e-01
      vertex   4.000000e-02 -5.473414e-02 -2.783721e-01
    endloop
  endfacet
  facet normal 1.138821e-15 8.206070e-01 -5.714929e-01
    outer loop
      vertex   4.000000e-02 -5.473414e-02 -2.783721e-01
      vertex   3.500000e-02 -5.473414e-02 -2.783721e-01
      vertex   3.500000e-02 -5.334462e-02 -2.763769e-01
    endloop
  endfacet
  facet normal 1.149638e-15 8.206070e-01 -5.714929e-01
    outer loop
      vertex   4.000000e-02 -5.473414e-02 -2.783721e-01
      vertex   3.500000e-02 -5.334462e-02 -2.763769e-01
      vertex   4.000000e-02 -5.334462e-02 -2.763769e-01
    endloop
  endfacet
  facet normal 6.386594e-16 4.602026e-01 -8.878139e-01
    outer loop
      vertex   4.000000e-02 -5.334462e-02 -2.763769e-01
      vertex   3.500000e-02 -5.334462e-02 -2.763769e-01
      vertex   4.000000e-02 -5.118601e-02 -2.752580e-01
    endloop
  endfacet
  facet normal 0.000000e+00 4.602026e-01 -8.878139e-01
    outer loop
      vertex   4.000000e-02 -5.118601e-02 -2.752580e-01
      vertex   3.500000e-02 -5.334462e-02 -2.763769e-01
      vertex   3.500000e-02 -5.118601e-02 -2.752580e-01
    endloop
  endfacet
  facet normal 0.000000e+00 0.000000e+00 -1.000000e+00
    outer loop
      vertex   3.500000e-02 -5.118601e-02 -2.752580e-01
      vertex   3.500000e-02 -4.881399e-02 -2.752580e-01
      vertex   4.000000e-02 -5.118601e-02 -2.752580e-01
    endloop
  endfacet
  facet normal 0.000000e+00 0.000000e+00 -1.000000e+00
    outer loop
      vertex   4.000000e-02 -5.118601e-02 -2.752580e-01
      vertex   3.500000e-02 -4.881399e-02 -2.752580e-01
      vertex   4.000000e-02 -4.881399e-02 -2.752580e-01
    endloop
  endfacet
  facet normal 0.000000e+00 -1.000000e+00 0.000000e+00
    outer loop
      vertex   3.500000e-02 -6.499801e-02 -2.799433e-01
      vertex   3.500000e-02 -6.499801e-02 -3.155160e-01
      vertex   4.000000e-02 -6.499801e-02 -2.799433e-01
    endloop
  endfacet
  facet normal 0.000000e+00 -1.000000e+00 -0.000000e+00
    outer loop
      vertex   4.000000e-02 -6.499801e-02 -2.799433e-01
      vertex   3.500000e-02 -6.499801e-02 -3.155160e-01
      vertex   4.000000e-02 -6.499801e-02 -3.155160e-01
    endloop
  endfacet
  facet normal 0.000000e+00 9.751862e-01 2.213862e-01
    outer loop
      vertex   4.000000e-02 -3.500000e-02 -2.801877e-01
      vertex   3.500000e-02 -3.500000e-02 -2.801877e-01
      vertex   4.000000e-02 -3.647036e-02 -2.737109e-01
    endloop
  endfacet
  facet normal 1.353343e-15 9.751862e-01 2.213862e-01
    outer loop
      vertex   4.000000e-02 -3.647036e-02 -2.737109e-01
      vertex   3.500000e-02 -3.500000e-02 -2.801877e-01
      vertex   3.500000e-02 -3.647036e-02 -2.737109e-01
    endloop
  endfacet
  facet normal 1.088023e-15 7.840036e-01 6.207563e-01
    outer loop
      vertex   4.000000e-02 -3.647036e-02 -2.737109e-01
      vertex   3.500000e-02 -3.647036e-02 -2.737109e-01
      vertex   4.000000e-02 -4.059316e-02 -2.685039e-01
    endloop
  endfacet
  facet normal 1.088023e-15 7.840036e-01 6.207563e-01
    outer loop
      vertex   4.000000e-02 -4.059316e-02 -2.685039e-01
      vertex   3.500000e-02 -3.647036e-02 -2.737109e-01
      vertex   3.500000e-02 -4.059316e-02 -2.685039e-01
    endloop
  endfacet
  facet normal 6.094001e-16 4.391191e-01 8.984289e-01
    outer loop
      vertex   4.000000e-02 -4.059316e-02 -2.685039e-01
      vertex   3.500000e-02 -4.059316e-02 -2.685039e-01
      vertex   4.000000e-02 -4.656015e-02 -2.655874e-01
    endloop
  endfacet
  facet normal 6.094001e-16 4.391191e-01 8.984289e-01
    outer loop
      vertex   4.000000e-02 -4.656015e-02 -2.655874e-01
      vertex   3.500000e-02 -4.059316e-02 -2.685039e-01
      vertex   3.500000e-02 -4.656015e-02 -2.655874e-01
    endloop
  endfacet
  facet normal 1.130549e-17 8.146468e-03 9.999668e-01
    outer loop
      vertex   4.000000e-02 -4.656015e-02 -2.655874e-01
      vertex   3.500000e-02 -4.656015e-02 -2.655874e-01
      vertex   4.000000e-02 -5.320152e-02 -2.655333e-01
    endloop
  endfacet
  facet normal 1.130549e-17 8.146468e-03 9.999668e-01
    outer loop
      vertex   4.000000e-02 -5.320152e-02 -2.655333e-01
      vertex   3.500000e-02 -4.656015e-02 -2.655874e-01
      vertex   3.500000e-02 -5.320152e-02 -2.655333e-01
    endloop
  endfacet
  facet normal -5.890056e-16 -4.244232e-01 9.054639e-01
    outer loop
      vertex   4.000000e-02 -5.320152e-02 -2.655333e-01
      vertex   3.500000e-02 -5.320152e-02 -2.655333e-01
      vertex   4.000000e-02 -5.921523e-02 -2.683522e-01
    endloop
  endfacet
  facet normal -5.890056e-16 -4.244232e-01 9.054639e-01
    outer loop
      vertex   4.000000e-02 -5.921523e-02 -2.683522e-01
      vertex   3.500000e-02 -5.320152e-02 -2.655333e-01
      vertex   3.500000e-02 -5.921523e-02 -2.683522e-01
    endloop
  endfacet
  facet normal -1.073844e-15 -7.737859e-01 6.334472e-01
    outer loop
      vertex   4.000000e-02 -5.921523e-02 -2.683522e-01
      vertex   3.500000e-02 -5.921523e-02 -2.683522e-01
      vertex   4.000000e-02 -6.342233e-02 -2.734913e-01
    endloop
  endfacet
  facet normal -2.147687e-15 -7.737859e-01 6.334472e-01
    outer loop
      vertex   4.000000e-02 -6.342233e-02 -2.734913e-01
      vertex   3.500000e-02 -5.921523e-02 -2.683522e-01
      vertex   3.500000e-02 -6.342233e-02 -2.734913e-01
    endloop
  endfacet
  facet normal -2.696315e-15 -9.714499e-01 2.372449e-01
    outer loop
      vertex   4.000000e-02 -6.342233e-02 -2.734913e-01
      vertex   3.500000e-02 -6.342233e-02 -2.734913e-01
      vertex   4.000000e-02 -6.499801e-02 -2.799433e-01
    endloop
  endfacet
  facet normal 0.000000e+00 -9.714499e-01 2.372449e-01
    outer loop
      vertex   4.000000e-02 -6.499801e-02 -2.799433e-01
      vertex   3.500000e-02 -6.342233e-02 -2.734913e-01
      vertex   3.500000e-02 -6.499801e-02 -2.799433e-01
    endloop
  endfacet
  facet normal -0.000000e+00 1.000000e+00 1.964116e-16
    outer loop
      vertex   3.500000e-02 -3.500000e-02 -3.155160e-01
      vertex   3.500000e-02 -3.500000e-02 -2.801877e-01
      vertex   4.000000e-02 -3.500000e-02 -3.155160e-01
    endloop
  endfacet
  facet normal 0.000000e+00 1.000000e+00 1.964116e-16
    outer loop
      vertex   4.000000e-02 -3.500000e-02 -3.155160e-01
      vertex   3.500000e-02 -3.500000e-02 -2.801877e-01
      vertex   4.000000e-02 -3.500000e-02 -2.801877e-01
    endloop
  endfacet
  facet normal 1.000000e+00 0.000000e+00 0.000000e+00
    outer loop
      vertex   4.000000e-02 -5.334462e-02 -2.763769e-01
      vertex   4.000000e-02 -5.118601e-02 -2.752580e-01
      vertex   4.000000e-02 -5.320152e-02 -2.655333e-01
    endloop
  endfacet
  facet normal 1.000000e+00 0.000000e+00 0.000000e+00
    outer loop
      vertex   4.000000e-02 -5.320152e-02 -2.655333e-01
      vertex   4.000000e-02 -5.118601e-02 -2.752580e-01
      vertex   4.000000e-02 -4.881399e-02 -2.752580e-01
    endloop
  endfacet
  facet normal 1.000000e+00 0.000000e+00 0.000000e+00
    outer loop
      vertex   4.000000e-02 -5.320152e-02 -2.655333e-01
      vertex   4.000000e-02 -4.881399e-02 -2.752580e-01
      vertex   4.000000e-02 -4.656015e-02 -2.655874e-01
    endloop
  endfacet
  facet normal 1.000000e+00 0.000000e+00 0.000000e+00
    outer loop
      vertex   4.000000e-02 -4.656015e-02 -2.655874e-01
      vertex   4.000000e-02 -4.881399e-02 -2.752580e-01
      vertex   4.000000e-02 -4.665538e-02 -2.763769e-01
    endloop
  endfacet
  facet normal 1.000000e+00 -1.157885e-15 1.021893e-17
    outer loop
      vertex   4.000000e-02 -4.656015e-02 -2.655874e-01
      vertex   4.000000e-02 -4.665538e-02 -2.763769e-01
      vertex   4.000000e-02 -4.059316e-02 -2.685039e-01
    endloop
  endfacet
  facet normal 1.000000e+00 -6.010181e-16 -4.185653e-16
    outer loop
      vertex   4.000000e-02 -4.059316e-02 -2.685039e-01
      vertex   4.000000e-02 -4.665538e-02 -2.763769e-01
      vertex   4.000000e-02 -4.526586e-02 -2.783721e-01
    endloop
  endfacet
  facet normal 1.000000e+00 -5.557261e-16 -4.400114e-16
    outer loop
      vertex   4.000000e-02 -4.059316e-02 -2.685039e-01
      vertex   4.000000e-02 -4.526586e-02 -2.783721e-01
      vertex   4.000000e-02 -3.647036e-02 -2.737109e-01
    endloop
  endfacet
  facet normal 1.000000e+00 -7.400039e-16 -9.229010e-17
    outer loop
      vertex   4.000000e-02 -3.647036e-02 -2.737109e-01
      vertex   4.000000e-02 -4.526586e-02 -2.783721e-01
      vertex   4.000000e-02 -4.496496e-02 -2.807848e-01
    endloop
  endfacet
  facet normal 1.000000e+00 -2.187631e-15 1.646063e-15
    outer loop
      vertex   4.000000e-02 -3.647036e-02 -2.737109e-01
      vertex   4.000000e-02 -4.496496e-02 -2.807848e-01
      vertex   4.000000e-02 -3.500000e-02 -2.801877e-01
    endloop
  endfacet
  facet normal 1.000000e+00 -2.137222e-15 8.048808e-16
    outer loop
      vertex   4.000000e-02 -3.500000e-02 -2.801877e-01
      vertex   4.000000e-02 -4.496496e-02 -2.807848e-01
      vertex   4.000000e-02 -4.582187e-02 -2.830602e-01
    endloop
  endfacet
  facet normal 1.000000e+00 -1.923576e-15 -3.778125e-31
    outer loop
      vertex   4.000000e-02 -3.500000e-02 -2.801877e-01
      vertex   4.000000e-02 -4.582187e-02 -2.830602e-01
      vertex   4.000000e-02 -3.500000e-02 -3.155160e-01
    endloop
  endfacet
  facet normal 1.000000e+00 -4.395932e-16 4.948102e-16
    outer loop
      vertex   4.000000e-02 -3.500000e-02 -3.155160e-01
      vertex   4.000000e-02 -4.582187e-02 -2.830602e-01
      vertex   4.000000e-02 -4.763954e-02 -2.846750e-01
    endloop
  endfacet
  facet normal 1.000000e+00 -1.513752e-16 6.129305e-16
    outer loop
      vertex   4.000000e-02 -3.500000e-02 -3.155160e-01
      vertex   4.000000e-02 -4.763954e-02 -2.846750e-01
      vertex   4.000000e-02 -5.000000e-02 -2.852580e-01
    endloop
  endfacet
  facet normal 1.000000e+00 -6.939354e-16 3.439635e-16
    outer loop
      vertex   4.000000e-02 -3.500000e-02 -3.155160e-01
      vertex   4.000000e-02 -5.000000e-02 -2.852580e-01
      vertex   4.000000e-02 -6.499801e-02 -3.155160e-01
    endloop
  endfacet
  facet normal 1.000000e+00 0.000000e+00 0.000000e+00
    outer loop
      vertex   4.000000e-02 -6.499801e-02 -3.155160e-01
      vertex   4.000000e-02 -5.000000e-02 -2.852580e-01
      vertex   4.000000e-02 -5.236046e-02 -2.846750e-01
    endloop
  endfacet
  facet normal 1.000000e+00 0.000000e+00 0.000000e+00
    outer loop
      vertex   4.000000e-02 -6.499801e-02 -3.155160e-01
      vertex   4.000000e-02 -5.236046e-02 -2.846750e-01
      vertex   4.000000e-02 -5.417813e-02 -2.830602e-01
    endloop
  endfacet
  facet normal 1.000000e+00 0.000000e+00 0.000000e+00
    outer loop
      vertex   4.000000e-02 -6.499801e-02 -3.155160e-01
      vertex   4.000000e-02 -5.417813e-02 -2.830602e-01
      vertex   4.000000e-02 -6.499801e-02 -2.799433e-01
    endloop
  endfacet
  facet normal 1.000000e+00 0.000000e+00 0.000000e+00
    outer loop
      vertex   4.000000e-02 -6.499801e-02 -2.799433e-01
      vertex   4.000000e-02 -5.417813e-02 -2.830602e-01
      vertex   4.000000e-02 -5.503504e-02 -2.807848e-01
    endloop
  endfacet
  facet normal 1.000000e+00 8.900613e-17 1.053733e-15
    outer loop
      vertex   4.000000e-02 -6.499801e-02 -2.799433e-01
      vertex   4.000000e-02 -5.503504e-02 -2.807848e-01
      vertex   4.000000e-02 -6.342233e-02 -2.734913e-01
    endloop
  endfacet
  facet normal 1.000000e+00 -7.463664e-16 9.308360e-17
    outer loop
      vertex   4.000000e-02 -6.342233e-02 -2.734913e-01
      vertex   4.000000e-02 -5.503504e-02 -2.807848e-01
      vertex   4.000000e-02 -5.473414e-02 -2.783721e-01
    endloop
  endfacet
  facet normal 1.000000e+00 -5.470679e-16 4.478482e-16
    outer loop
      vertex   4.000000e-02 -6.342233e-02 -2.734913e-01
      vertex   4.000000e-02 -5.473414e-02 -2.783721e-01
      vertex   4.000000e-02 -5.921523e-02 -2.683522e-01
    endloop
  endfacet
  facet normal 1.000000e+00 -6.055261e-16 4.217048e-16
    outer loop
      vertex   4.000000e-02 -5.921523e-02 -2.683522e-01
      vertex   4.000000e-02 -5.473414e-02 -2.783721e-01
      vertex   4.000000e-02 -5.334462e-02 -2.763769e-01
    endloop
  endfacet
  facet normal 1.000000e+00 -1.161027e-15 1.532244e-17
    outer loop
      vertex   4.000000e-02 -5.921523e-02 -2.683522e-01
      vertex   4.000000e-02 -5.334462e-02 -2.763769e-01
      vertex   4.000000e-02 -5.320152e-02 -2.655333e-01
    endloop
  endfacet
  facet normal -1.000000e+00 0.000000e+00 0.000000e+00
    outer loop
      vertex   3.500000e-02 -5.118601e-02 -2.752580e-01
      vertex   3.500000e-02 -5.320152e-02 -2.655333e-01
      vertex   3.500000e-02 -4.881399e-02 -2.752580e-01
    endloop
  endfacet
  facet normal -1.000000e+00 0.000000e+00 0.000000e+00
    outer loop
      vertex   3.500000e-02 -4.881399e-02 -2.752580e-01
      vertex   3.500000e-02 -5.320152e-02 -2.655333e-01
      vertex   3.500000e-02 -4.656015e-02 -2.655874e-01
    endloop
  endfacet
  facet normal -1.000000e+00 2.868029e-15 -6.684264e-16
    outer loop
      vertex   3.500000e-02 -4.881399e-02 -2.752580e-01
      vertex   3.500000e-02 -4.656015e-02 -2.655874e-01
      vertex   3.500000e-02 -4.665538e-02 -2.763769e-01
    endloop
  endfacet
  facet normal -1.000000e+00 8.449044e-16 -6.505713e-16
    outer loop
      vertex   3.500000e-02 -4.665538e-02 -2.763769e-01
      vertex   3.500000e-02 -4.656015e-02 -2.655874e-01
      vertex   3.500000e-02 -4.059316e-02 -2.685039e-01
    endloop
  endfacet
  facet normal -1.000000e+00 0.000000e+00 0.000000e+00
    outer loop
      vertex   3.500000e-02 -4.665538e-02 -2.763769e-01
      vertex   3.500000e-02 -4.059316e-02 -2.685039e-01
      vertex   3.500000e-02 -4.526586e-02 -2.783721e-01
    endloop
  endfacet
  facet normal -1.000000e+00 1.053204e-15 -4.986991e-16
    outer loop
      vertex   3.500000e-02 -4.526586e-02 -2.783721e-01
      vertex   3.500000e-02 -4.059316e-02 -2.685039e-01
      vertex   3.500000e-02 -3.647036e-02 -2.737109e-01
    endloop
  endfacet
  facet normal -1.000000e+00 7.400039e-16 9.229010e-17
    outer loop
      vertex   3.500000e-02 -4.526586e-02 -2.783721e-01
      vertex   3.500000e-02 -3.647036e-02 -2.737109e-01
      vertex   3.500000e-02 -4.496496e-02 -2.807848e-01
    endloop
  endfacet
  facet normal -1.000000e+00 6.869835e-16 1.559586e-16
    outer loop
      vertex   3.500000e-02 -4.496496e-02 -2.807848e-01
      vertex   3.500000e-02 -3.647036e-02 -2.737109e-01
      vertex   3.500000e-02 -3.500000e-02 -2.801877e-01
    endloop
  endfacet
  facet normal -1.000000e+00 5.254396e-16 2.851680e-15
    outer loop
      vertex   3.500000e-02 -4.496496e-02 -2.807848e-01
      vertex   3.500000e-02 -3.500000e-02 -2.801877e-01
      vertex   3.500000e-02 -4.582187e-02 -2.830602e-01
    endloop
  endfacet
  facet normal -1.000000e+00 1.282384e-15 2.518750e-31
    outer loop
      vertex   3.500000e-02 -4.582187e-02 -2.830602e-01
      vertex   3.500000e-02 -3.500000e-02 -2.801877e-01
      vertex   3.500000e-02 -3.500000e-02 -3.155160e-01
    endloop
  endfacet
  facet normal -1.000000e+00 2.930621e-16 -3.298735e-16
    outer loop
      vertex   3.500000e-02 -4.582187e-02 -2.830602e-01
      vertex   3.500000e-02 -3.500000e-02 -3.155160e-01
      vertex   3.500000e-02 -4.763954e-02 -2.846750e-01
    endloop
  endfacet
  facet normal -1.000000e+00 1.009168e-16 -4.086203e-16
    outer loop
      vertex   3.500000e-02 -4.763954e-02 -2.846750e-01
      vertex   3.500000e-02 -3.500000e-02 -3.155160e-01
      vertex   3.500000e-02 -5.000000e-02 -2.852580e-01
    endloop
  endfacet
  facet normal -1.000000e+00 6.939354e-16 -1.146393e-16
    outer loop
      vertex   3.500000e-02 -5.000000e-02 -2.852580e-01
      vertex   3.500000e-02 -3.500000e-02 -3.155160e-01
      vertex   3.500000e-02 -6.499801e-02 -3.155160e-01
    endloop
  endfacet
  facet normal -1.000000e+00 5.045913e-17 2.043131e-16
    outer loop
      vertex   3.500000e-02 -5.000000e-02 -2.852580e-01
      vertex   3.500000e-02 -6.499801e-02 -3.155160e-01
      vertex   3.500000e-02 -5.236046e-02 -2.846750e-01
    endloop
  endfacet
  facet normal -1.000000e+00 1.465372e-16 1.649437e-16
    outer loop
      vertex   3.500000e-02 -5.236046e-02 -2.846750e-01
      vertex   3.500000e-02 -6.499801e-02 -3.155160e-01
      vertex   3.500000e-02 -5.417813e-02 -2.830602e-01
    endloop
  endfacet
  facet normal -1.000000e+00 6.413100e-16 0.000000e+00
    outer loop
      vertex   3.500000e-02 -5.417813e-02 -2.830602e-01
      vertex   3.500000e-02 -6.499801e-02 -3.155160e-01
      vertex   3.500000e-02 -6.499801e-02 -2.799433e-01
    endloop
  endfacet
  facet normal -1.000000e+00 7.193516e-16 2.709089e-16
    outer loop
      vertex   3.500000e-02 -5.417813e-02 -2.830602e-01
      vertex   3.500000e-02 -6.499801e-02 -2.799433e-01
      vertex   3.500000e-02 -5.503504e-02 -2.807848e-01
    endloop
  endfacet
  facet normal -1.000000e+00 6.823920e-16 -1.666520e-16
    outer loop
      vertex   3.500000e-02 -5.503504e-02 -2.807848e-01
      vertex   3.500000e-02 -6.499801e-02 -2.799433e-01
      vertex   3.500000e-02 -6.342233e-02 -2.734913e-01
    endloop
  endfacet
  facet normal -1.000000e+00 7.463664e-16 -9.308360e-17
    outer loop
      vertex   3.500000e-02 -5.503504e-02 -2.807848e-01
      vertex   3.500000e-02 -6.342233e-02 -2.734913e-01
      vertex   3.500000e-02 -5.473414e-02 -2.783721e-01
    endloop
  endfacet
  facet normal -1.000000e+00 1.066635e-15 4.770154e-16
    outer loop
      vertex   3.500000e-02 -5.473414e-02 -2.783721e-01
      vertex   3.500000e-02 -6.342233e-02 -2.734913e-01
      vertex   3.500000e-02 -5.921523e-02 -2.683522e-01
    endloop
  endfacet
  facet normal -1.000000e+00 0.000000e+00 0.000000e+00
    outer loop
      vertex   3.500000e-02 -5.473414e-02 -2.783721e-01
      vertex   3.500000e-02 -5.921523e-02 -2.683522e-01
      vertex   3.500000e-02 -5.334462e-02 -2.763769e-01
    endloop
  endfacet
  facet normal -1.000000e+00 0.000000e+00 0.000000e+00
    outer loop
      vertex   3.500000e-02 -5.334462e-02 -2.763769e-01
      vertex   3.500000e-02 -5.921523e-02 -2.683522e-01
      vertex   3.500000e-02 -5.320152e-02 -2.655333e-01
    endloop
  endfacet
  facet normal -1.000000e+00 0.000000e+00 0.000000e+00
    outer loop
      vertex   3.500000e-02 -5.334462e-02 -2.763769e-01
      vertex   3.500000e-02 -5.320152e-02 -2.655333e-01
      vertex   3.500000e-02 -5.118601e-02 -2.752580e-01
    endloop
  endfacet
endsolid
