solid ASCII
  facet normal 2.588190e-01 -1.197279e-16 -9.659258e-01
    outer loop
      vertex   2.500000e-03 6.500000e-02 -1.447288e-01
      vertex   2.500000e-03 3.500000e-02 -1.447288e-01
      vertex   2.770503e-16 6.500000e-02 -1.453987e-01
    endloop
  endfacet
  facet normal 2.588190e-01 -9.296751e-17 -9.659258e-01
    outer loop
      vertex   2.770503e-16 6.500000e-02 -1.453987e-01
      vertex   2.500000e-03 3.500000e-02 -1.447288e-01
      vertex   2.662743e-16 3.500000e-02 -1.453987e-01
    endloop
  endfacet
  facet normal -2.588190e-01 9.296751e-17 -9.659258e-01
    outer loop
      vertex   2.770503e-16 6.500000e-02 -1.453987e-01
      vertex   2.662743e-16 3.500000e-02 -1.453987e-01
      vertex   -2.500000e-03 6.500000e-02 -1.447288e-01
    endloop
  endfacet
  facet normal -2.588190e-01 1.197279e-16 -9.659258e-01
    outer loop
      vertex   -2.500000e-03 6.500000e-02 -1.447288e-01
      vertex   2.662743e-16 3.500000e-02 -1.453987e-01
      vertex   -2.500000e-03 3.500000e-02 -1.447288e-01
    endloop
  endfacet
  facet normal -7.071068e-01 3.271026e-16 -7.071068e-01
    outer loop
      vertex   -2.500000e-03 6.500000e-02 -1.447288e-01
      vertex   -2.500000e-03 3.500000e-02 -1.447288e-01
      vertex   -4.330127e-03 6.500000e-02 -1.428987e-01
    endloop
  endfacet
  facet normal -7.071068e-01 3.271026e-16 -7.071068e-01
    outer loop
      vertex   -4.330127e-03 6.500000e-02 -1.428987e-01
      vertex   -2.500000e-03 3.500000e-02 -1.447288e-01
      vertex   -4.330127e-03 3.500000e-02 -1.428987e-01
    endloop
  endfacet
  facet normal -9.659258e-01 4.468305e-16 -2.588190e-01
    outer loop
      vertex   -4.330127e-03 6.500000e-02 -1.428987e-01
      vertex   -4.330127e-03 3.500000e-02 -1.428987e-01
      vertex   -5.000000e-03 6.500000e-02 -1.403987e-01
    endloop
  endfacet
  facet normal -9.659258e-01 3.909766e-16 -2.588190e-01
    outer loop
      vertex   -5.000000e-03 6.500000e-02 -1.403987e-01
      vertex   -4.330127e-03 3.500000e-02 -1.428987e-01
      vertex   -5.000000e-03 3.500000e-02 -1.403987e-01
    endloop
  endfacet
  facet normal -9.659258e-01 3.909766e-16 2.588190e-01
    outer loop
      vertex   -5.000000e-03 6.500000e-02 -1.403987e-01
      vertex   -5.000000e-03 3.500000e-02 -1.403987e-01
      vertex   -4.330127e-03 6.500000e-02 -1.378987e-01
    endloop
  endfacet
  facet normal -9.659258e-01 3.630497e-16 2.588190e-01
    outer loop
      vertex   -4.330127e-03 6.500000e-02 -1.378987e-01
      vertex   -5.000000e-03 3.500000e-02 -1.403987e-01
      vertex   -4.330127e-03 3.500000e-02 -1.378987e-01
    endloop
  endfacet
  facet normal -7.071068e-01 2.657709e-16 7.071068e-01
    outer loop
      vertex   -4.330127e-03 6.500000e-02 -1.378987e-01
      vertex   -4.330127e-03 3.500000e-02 -1.378987e-01
      vertex   -2.500000e-03 6.500000e-02 -1.360685e-01
    endloop
  endfacet
  facet normal -7.071068e-01 2.351050e-16 7.071068e-01
    outer loop
      vertex   -2.500000e-03 6.500000e-02 -1.360685e-01
      vertex   -4.330127e-03 3.500000e-02 -1.378987e-01
      vertex   -2.500000e-03 3.500000e-02 -1.360685e-01
    endloop
  endfacet
  facet normal -2.588190e-01 8.605440e-17 9.659258e-01
    outer loop
      vertex   -2.500000e-03 6.500000e-02 -1.360685e-01
      vertex   -2.500000e-03 3.500000e-02 -1.360685e-01
      vertex   2.764143e-16 6.500000e-02 -1.353987e-01
    endloop
  endfacet
  facet normal -2.588190e-01 1.035329e-16 9.659258e-01
    outer loop
      vertex   2.764143e-16 6.500000e-02 -1.353987e-01
      vertex   -2.500000e-03 3.500000e-02 -1.360685e-01
      vertex   2.644137e-16 3.500000e-02 -1.353987e-01
    endloop
  endfacet
  facet normal 2.588190e-01 -1.035329e-16 9.659258e-01
    outer loop
      vertex   2.764143e-16 6.500000e-02 -1.353987e-01
      vertex   2.644137e-16 3.500000e-02 -1.353987e-01
      vertex   2.500000e-03 6.500000e-02 -1.360685e-01
    endloop
  endfacet
  facet normal 2.588190e-01 -8.979589e-17 9.659258e-01
    outer loop
      vertex   2.500000e-03 6.500000e-02 -1.360685e-01
      vertex   2.644137e-16 3.500000e-02 -1.353987e-01
      vertex   2.500000e-03 3.500000e-02 -1.360685e-01
    endloop
  endfacet
  facet normal 7.071068e-01 -2.453269e-16 7.071068e-01
    outer loop
      vertex   2.500000e-03 6.500000e-02 -1.360685e-01
      vertex   2.500000e-03 3.500000e-02 -1.360685e-01
      vertex   4.330127e-03 6.500000e-02 -1.378987e-01
    endloop
  endfacet
  facet normal 7.071068e-01 -2.657709e-16 7.071068e-01
    outer loop
      vertex   4.330127e-03 6.500000e-02 -1.378987e-01
      vertex   2.500000e-03 3.500000e-02 -1.360685e-01
      vertex   4.330127e-03 3.500000e-02 -1.378987e-01
    endloop
  endfacet
  facet normal 9.659258e-01 -3.630497e-16 2.588190e-01
    outer loop
      vertex   4.330127e-03 6.500000e-02 -1.378987e-01
      vertex   4.330127e-03 3.500000e-02 -1.378987e-01
      vertex   5.000000e-03 6.500000e-02 -1.403987e-01
    endloop
  endfacet
  facet normal 9.659258e-01 -3.909766e-16 2.588190e-01
    outer loop
      vertex   5.000000e-03 6.500000e-02 -1.403987e-01
      vertex   4.330127e-03 3.500000e-02 -1.378987e-01
      vertex   5.000000e-03 3.500000e-02 -1.403987e-01
    endloop
  endfacet
  facet normal 9.659258e-01 -3.909766e-16 -2.588190e-01
    outer loop
      vertex   5.000000e-03 6.500000e-02 -1.403987e-01
      vertex   5.000000e-03 3.500000e-02 -1.403987e-01
      vertex   4.330127e-03 6.500000e-02 -1.428987e-01
    endloop
  endfacet
  facet normal 9.659258e-01 -4.468305e-16 -2.588190e-01
    outer loop
      vertex   4.330127e-03 6.500000e-02 -1.428987e-01
      vertex   5.000000e-03 3.500000e-02 -1.403987e-01
      vertex   4.330127e-03 3.500000e-02 -1.428987e-01
    endloop
  endfacet
  facet normal 7.071068e-01 -3.271026e-16 -7.071068e-01
    outer loop
      vertex   4.330127e-03 6.500000e-02 -1.428987e-01
      vertex   4.330127e-03 3.500000e-02 -1.428987e-01
      vertex   2.500000e-03 6.500000e-02 -1.447288e-01
    endloop
  endfacet
  facet normal 7.071068e-01 -3.271026e-16 -7.071068e-01
    outer loop
      vertex   2.500000e-03 6.500000e-02 -1.447288e-01
      vertex   4.330127e-03 3.500000e-02 -1.428987e-01
      vertex   2.500000e-03 3.500000e-02 -1.447288e-01
    endloop
  endfacet
  facet normal 8.856350e-16 1.000000e+00 1.097380e-31
    outer loop
      vertex   2.000000e-02 7.000000e-02 -1.403987e-01
      vertex   4.330127e-03 7.000000e-02 -2.898668e-03
      vertex   2.000000e-02 7.000000e-02 -3.986677e-04
    endloop
  endfacet
  facet normal 9.251859e-16 1.000000e+00 -2.479028e-16
    outer loop
      vertex   2.000000e-02 7.000000e-02 -3.986677e-04
      vertex   4.330127e-03 7.000000e-02 -2.898668e-03
      vertex   5.000000e-03 7.000000e-02 -3.986677e-04
    endloop
  endfacet
  facet normal 9.251859e-16 1.000000e+00 3.832245e-16
    outer loop
      vertex   2.000000e-02 7.000000e-02 -3.986677e-04
      vertex   5.000000e-03 7.000000e-02 -3.986677e-04
      vertex   1.414214e-02 7.000000e-02 1.374347e-02
    endloop
  endfacet
  facet normal 1.951565e-15 1.000000e+00 -2.802751e-16
    outer loop
      vertex   1.414214e-02 7.000000e-02 1.374347e-02
      vertex   5.000000e-03 7.000000e-02 -3.986677e-04
      vertex   7.653669e-03 7.000000e-02 1.807892e-02
    endloop
  endfacet
  facet normal 0.000000e+00 1.000000e+00 0.000000e+00
    outer loop
      vertex   7.653669e-03 7.000000e-02 1.807892e-02
      vertex   5.000000e-03 7.000000e-02 -3.986677e-04
      vertex   4.330127e-03 7.000000e-02 2.101332e-03
    endloop
  endfacet
  facet normal 0.000000e+00 1.000000e+00 0.000000e+00
    outer loop
      vertex   7.653669e-03 7.000000e-02 1.807892e-02
      vertex   4.330127e-03 7.000000e-02 2.101332e-03
      vertex   2.500000e-03 7.000000e-02 3.931459e-03
    endloop
  endfacet
  facet normal 0.000000e+00 1.000000e+00 -0.000000e+00
    outer loop
      vertex   1.847759e-02 7.000000e-02 -1.480523e-01
      vertex   1.414214e-02 7.000000e-02 -1.545408e-01
      vertex   2.000000e-02 7.000000e-02 -1.403987e-01
    endloop
  endfacet
  facet normal 1.910903e-16 1.000000e+00 -7.915220e-17
    outer loop
      vertex   2.000000e-02 7.000000e-02 -1.403987e-01
      vertex   1.414214e-02 7.000000e-02 -1.545408e-01
      vertex   4.330127e-03 7.000000e-02 -2.898668e-03
    endloop
  endfacet
  facet normal 2.108815e-15 1.000000e+00 4.493424e-17
    outer loop
      vertex   1.414214e-02 7.000000e-02 -1.545408e-01
      vertex   7.653669e-03 7.000000e-02 -1.588763e-01
      vertex   4.330127e-03 7.000000e-02 -2.898668e-03
    endloop
  endfacet
  facet normal 0.000000e+00 1.000000e+00 0.000000e+00
    outer loop
      vertex   4.330127e-03 7.000000e-02 -2.898668e-03
      vertex   7.653669e-03 7.000000e-02 -1.588763e-01
      vertex   2.500000e-03 7.000000e-02 -4.728795e-03
    endloop
  endfacet
  facet normal 0.000000e+00 1.000000e+00 0.000000e+00
    outer loop
      vertex   2.500000e-03 7.000000e-02 -4.728795e-03
      vertex   7.653669e-03 7.000000e-02 -1.588763e-01
      vertex   2.790858e-16 7.000000e-02 -1.603987e-01
    endloop
  endfacet
  facet normal 0.000000e+00 1.000000e+00 0.000000e+00
    outer loop
      vertex   2.500000e-03 7.000000e-02 -4.728795e-03
      vertex   2.790858e-16 7.000000e-02 -1.603987e-01
      vertex   2.621866e-16 7.000000e-02 -5.398668e-03
    endloop
  endfacet
  facet normal 0.000000e+00 1.000000e+00 0.000000e+00
    outer loop
      vertex   2.621866e-16 7.000000e-02 -5.398668e-03
      vertex   2.790858e-16 7.000000e-02 -1.603987e-01
      vertex   -2.500000e-03 7.000000e-02 -4.728795e-03
    endloop
  endfacet
  facet normal 0.000000e+00 1.000000e+00 0.000000e+00
    outer loop
      vertex   -2.500000e-03 7.000000e-02 -4.728795e-03
      vertex   2.790858e-16 7.000000e-02 -1.603987e-01
      vertex   -7.653669e-03 7.000000e-02 -1.588763e-01
    endloop
  endfacet
  facet normal 0.000000e+00 1.000000e+00 0.000000e+00
    outer loop
      vertex   -2.500000e-03 7.000000e-02 -4.728795e-03
      vertex   -7.653669e-03 7.000000e-02 -1.588763e-01
      vertex   -4.330127e-03 7.000000e-02 -2.898668e-03
    endloop
  endfacet
  facet normal 0.000000e+00 1.000000e+00 0.000000e+00
    outer loop
      vertex   -4.330127e-03 7.000000e-02 -2.898668e-03
      vertex   -7.653669e-03 7.000000e-02 -1.588763e-01
      vertex   -1.414214e-02 7.000000e-02 -1.545408e-01
    endloop
  endfacet
  facet normal 0.000000e+00 1.000000e+00 0.000000e+00
    outer loop
      vertex   -4.330127e-03 7.000000e-02 -2.898668e-03
      vertex   -1.414214e-02 7.000000e-02 -1.545408e-01
      vertex   -2.000000e-02 7.000000e-02 -1.403987e-01
    endloop
  endfacet
  facet normal 0.000000e+00 1.000000e+00 0.000000e+00
    outer loop
      vertex   -2.000000e-02 7.000000e-02 -1.403987e-01
      vertex   -1.414214e-02 7.000000e-02 -1.545408e-01
      vertex   -1.847759e-02 7.000000e-02 -1.480523e-01
    endloop
  endfacet
  facet normal 0.000000e+00 1.000000e+00 -0.000000e+00
    outer loop
      vertex   -2.000000e-02 7.000000e-02 -1.403987e-01
      vertex   -2.000000e-02 7.000000e-02 -3.986677e-04
      vertex   -4.330127e-03 7.000000e-02 -2.898668e-03
    endloop
  endfacet
  facet normal 0.000000e+00 1.000000e+00 0.000000e+00
    outer loop
      vertex   -4.330127e-03 7.000000e-02 -2.898668e-03
      vertex   -2.000000e-02 7.000000e-02 -3.986677e-04
      vertex   -5.000000e-03 7.000000e-02 -3.986677e-04
    endloop
  endfacet
  facet normal 0.000000e+00 1.000000e+00 0.000000e+00
    outer loop
      vertex   -5.000000e-03 7.000000e-02 -3.986677e-04
      vertex   -2.000000e-02 7.000000e-02 -3.986677e-04
      vertex   -1.414214e-02 7.000000e-02 1.374347e-02
    endloop
  endfacet
  facet normal 0.000000e+00 1.000000e+00 0.000000e+00
    outer loop
      vertex   -5.000000e-03 7.000000e-02 -3.986677e-04
      vertex   -1.414214e-02 7.000000e-02 1.374347e-02
      vertex   -7.653669e-03 7.000000e-02 1.807892e-02
    endloop
  endfacet
  facet normal 0.000000e+00 1.000000e+00 0.000000e+00
    outer loop
      vertex   -2.000000e-02 7.000000e-02 -3.986677e-04
      vertex   -1.847759e-02 7.000000e-02 7.255001e-03
      vertex   -1.414214e-02 7.000000e-02 1.374347e-02
    endloop
  endfacet
  facet normal 0.000000e+00 1.000000e+00 0.000000e+00
    outer loop
      vertex   2.590658e-16 7.000000e-02 1.960133e-02
      vertex   -2.500000e-03 7.000000e-02 3.931459e-03
      vertex   -7.653669e-03 7.000000e-02 1.807892e-02
    endloop
  endfacet
  facet normal 0.000000e+00 1.000000e+00 0.000000e+00
    outer loop
      vertex   -7.653669e-03 7.000000e-02 1.807892e-02
      vertex   -2.500000e-03 7.000000e-02 3.931459e-03
      vertex   -4.330127e-03 7.000000e-02 2.101332e-03
    endloop
  endfacet
  facet normal 0.000000e+00 1.000000e+00 0.000000e+00
    outer loop
      vertex   -7.653669e-03 7.000000e-02 1.807892e-02
      vertex   -4.330127e-03 7.000000e-02 2.101332e-03
      vertex   -5.000000e-03 7.000000e-02 -3.986677e-04
    endloop
  endfacet
  facet normal 0.000000e+00 1.000000e+00 0.000000e+00
    outer loop
      vertex   7.653669e-03 7.000000e-02 1.807892e-02
      vertex   2.500000e-03 7.000000e-02 3.931459e-03
      vertex   2.590658e-16 7.000000e-02 1.960133e-02
    endloop
  endfacet
  facet normal 0.000000e+00 1.000000e+00 0.000000e+00
    outer loop
      vertex   2.590658e-16 7.000000e-02 1.960133e-02
      vertex   2.500000e-03 7.000000e-02 3.931459e-03
      vertex   2.609383e-16 7.000000e-02 4.601332e-03
    endloop
  endfacet
  facet normal 0.000000e+00 1.000000e+00 0.000000e+00
    outer loop
      vertex   2.590658e-16 7.000000e-02 1.960133e-02
      vertex   2.609383e-16 7.000000e-02 4.601332e-03
      vertex   -2.500000e-03 7.000000e-02 3.931459e-03
    endloop
  endfacet
  facet normal 0.000000e+00 1.000000e+00 0.000000e+00
    outer loop
      vertex   1.414214e-02 7.000000e-02 1.374347e-02
      vertex   1.847759e-02 7.000000e-02 7.255001e-03
      vertex   2.000000e-02 7.000000e-02 -3.986677e-04
    endloop
  endfacet
  facet normal -6.938894e-16 -1.000000e+00 -1.111113e-31
    outer loop
      vertex   -2.000000e-02 6.500000e-02 -7.039867e-02
      vertex   2.764143e-16 6.500000e-02 -1.353987e-01
      vertex   2.000000e-02 6.500000e-02 -7.039867e-02
    endloop
  endfacet
  facet normal -5.285099e-17 -1.000000e+00 -1.972426e-16
    outer loop
      vertex   2.000000e-02 6.500000e-02 -7.039867e-02
      vertex   2.764143e-16 6.500000e-02 -1.353987e-01
      vertex   2.500000e-03 6.500000e-02 -1.360685e-01
    endloop
  endfacet
  facet normal -1.668608e-16 -1.000000e+00 -1.668608e-16
    outer loop
      vertex   2.000000e-02 6.500000e-02 -7.039867e-02
      vertex   2.500000e-03 6.500000e-02 -1.360685e-01
      vertex   4.330127e-03 6.500000e-02 -1.378987e-01
    endloop
  endfacet
  facet normal -8.856350e-16 -1.000000e+00 -8.779039e-32
    outer loop
      vertex   -2.000000e-02 6.500000e-02 -1.403987e-01
      vertex   -4.330127e-03 6.500000e-02 -1.378987e-01
      vertex   -2.000000e-02 6.500000e-02 -7.039867e-02
    endloop
  endfacet
  facet normal -1.668608e-16 -1.000000e+00 1.668608e-16
    outer loop
      vertex   -2.000000e-02 6.500000e-02 -7.039867e-02
      vertex   -4.330127e-03 6.500000e-02 -1.378987e-01
      vertex   -2.500000e-03 6.500000e-02 -1.360685e-01
    endloop
  endfacet
  facet normal -5.285099e-17 -1.000000e+00 1.972426e-16
    outer loop
      vertex   -2.000000e-02 6.500000e-02 -7.039867e-02
      vertex   -2.500000e-03 6.500000e-02 -1.360685e-01
      vertex   2.764143e-16 6.500000e-02 -1.353987e-01
    endloop
  endfacet
  facet normal -9.251859e-16 -1.000000e+00 2.479028e-16
    outer loop
      vertex   -4.330127e-03 6.500000e-02 -1.378987e-01
      vertex   -2.000000e-02 6.500000e-02 -1.403987e-01
      vertex   -5.000000e-03 6.500000e-02 -1.403987e-01
    endloop
  endfacet
  facet normal -9.251859e-16 -1.000000e+00 -1.840309e-16
    outer loop
      vertex   -5.000000e-03 6.500000e-02 -1.403987e-01
      vertex   -2.000000e-02 6.500000e-02 -1.403987e-01
      vertex   -1.847759e-02 6.500000e-02 -1.480523e-01
    endloop
  endfacet
  facet normal -7.464544e-16 -1.000000e+00 -4.987649e-16
    outer loop
      vertex   -5.000000e-03 6.500000e-02 -1.403987e-01
      vertex   -1.847759e-02 6.500000e-02 -1.480523e-01
      vertex   -1.414214e-02 6.500000e-02 -1.545408e-01
    endloop
  endfacet
  facet normal -1.951565e-15 -1.000000e+00 2.802751e-16
    outer loop
      vertex   -1.414214e-02 6.500000e-02 -1.545408e-01
      vertex   -7.653669e-03 6.500000e-02 -1.588763e-01
      vertex   -5.000000e-03 6.500000e-02 -1.403987e-01
    endloop
  endfacet
  facet normal 0.000000e+00 -1.000000e+00 -0.000000e+00
    outer loop
      vertex   -5.000000e-03 6.500000e-02 -1.403987e-01
      vertex   -7.653669e-03 6.500000e-02 -1.588763e-01
      vertex   -4.330127e-03 6.500000e-02 -1.428987e-01
    endloop
  endfacet
  facet normal 0.000000e+00 -1.000000e+00 -0.000000e+00
    outer loop
      vertex   -4.330127e-03 6.500000e-02 -1.428987e-01
      vertex   -7.653669e-03 6.500000e-02 -1.588763e-01
      vertex   -2.500000e-03 6.500000e-02 -1.447288e-01
    endloop
  endfacet
  facet normal 0.000000e+00 -1.000000e+00 -0.000000e+00
    outer loop
      vertex   -2.500000e-03 6.500000e-02 -1.447288e-01
      vertex   -7.653669e-03 6.500000e-02 -1.588763e-01
      vertex   2.770857e-16 6.500000e-02 -1.603987e-01
    endloop
  endfacet
  facet normal 0.000000e+00 -1.000000e+00 0.000000e+00
    outer loop
      vertex   -2.500000e-03 6.500000e-02 -1.447288e-01
      vertex   2.770857e-16 6.500000e-02 -1.603987e-01
      vertex   2.770503e-16 6.500000e-02 -1.453987e-01
    endloop
  endfacet
  facet normal 0.000000e+00 -1.000000e+00 0.000000e+00
    outer loop
      vertex   2.770503e-16 6.500000e-02 -1.453987e-01
      vertex   2.770857e-16 6.500000e-02 -1.603987e-01
      vertex   2.500000e-03 6.500000e-02 -1.447288e-01
    endloop
  endfacet
  facet normal 0.000000e+00 -1.000000e+00 -0.000000e+00
    outer loop
      vertex   2.500000e-03 6.500000e-02 -1.447288e-01
      vertex   2.770857e-16 6.500000e-02 -1.603987e-01
      vertex   7.653669e-03 6.500000e-02 -1.588763e-01
    endloop
  endfacet
  facet normal 0.000000e+00 -1.000000e+00 0.000000e+00
    outer loop
      vertex   2.500000e-03 6.500000e-02 -1.447288e-01
      vertex   7.653669e-03 6.500000e-02 -1.588763e-01
      vertex   4.330127e-03 6.500000e-02 -1.428987e-01
    endloop
  endfacet
  facet normal 0.000000e+00 -1.000000e+00 0.000000e+00
    outer loop
      vertex   4.330127e-03 6.500000e-02 -1.428987e-01
      vertex   7.653669e-03 6.500000e-02 -1.588763e-01
      vertex   5.000000e-03 6.500000e-02 -1.403987e-01
    endloop
  endfacet
  facet normal -1.951565e-15 -1.000000e+00 -2.802751e-16
    outer loop
      vertex   5.000000e-03 6.500000e-02 -1.403987e-01
      vertex   7.653669e-03 6.500000e-02 -1.588763e-01
      vertex   1.414214e-02 6.500000e-02 -1.545408e-01
    endloop
  endfacet
  facet normal -7.464544e-16 -1.000000e+00 4.987649e-16
    outer loop
      vertex   5.000000e-03 6.500000e-02 -1.403987e-01
      vertex   1.414214e-02 6.500000e-02 -1.545408e-01
      vertex   1.847759e-02 6.500000e-02 -1.480523e-01
    endloop
  endfacet
  facet normal -9.251859e-16 -1.000000e+00 1.840309e-16
    outer loop
      vertex   1.847759e-02 6.500000e-02 -1.480523e-01
      vertex   2.000000e-02 6.500000e-02 -1.403987e-01
      vertex   5.000000e-03 6.500000e-02 -1.403987e-01
    endloop
  endfacet
  facet normal -9.251859e-16 -1.000000e+00 -2.479028e-16
    outer loop
      vertex   5.000000e-03 6.500000e-02 -1.403987e-01
      vertex   2.000000e-02 6.500000e-02 -1.403987e-01
      vertex   4.330127e-03 6.500000e-02 -1.378987e-01
    endloop
  endfacet
  facet normal -8.856350e-16 -1.000000e+00 -8.779039e-32
    outer loop
      vertex   4.330127e-03 6.500000e-02 -1.378987e-01
      vertex   2.000000e-02 6.500000e-02 -1.403987e-01
      vertex   2.000000e-02 6.500000e-02 -7.039867e-02
    endloop
  endfacet
  facet normal 0.000000e+00 -1.000000e+00 0.000000e+00
    outer loop
      vertex   2.500000e-03 3.000000e-02 -4.728795e-03
      vertex   2.461858e-16 3.000000e-02 -5.398668e-03
      vertex   2.679836e-16 3.000000e-02 -1.603987e-01
    endloop
  endfacet
  facet normal 0.000000e+00 -1.000000e+00 0.000000e+00
    outer loop
      vertex   2.679836e-16 3.000000e-02 -1.603987e-01
      vertex   2.461858e-16 3.000000e-02 -5.398668e-03
      vertex   -2.500000e-03 3.000000e-02 -4.728795e-03
    endloop
  endfacet
  facet normal -9.095156e-16 -1.000000e+00 -1.460648e-17
    outer loop
      vertex   2.679836e-16 3.000000e-02 -1.603987e-01
      vertex   -2.500000e-03 3.000000e-02 -4.728795e-03
      vertex   -7.653669e-03 3.000000e-02 -1.588763e-01
    endloop
  endfacet
  facet normal -4.355835e-17 -1.000000e+00 -4.355835e-17
    outer loop
      vertex   -7.653669e-03 3.000000e-02 -1.588763e-01
      vertex   -2.500000e-03 3.000000e-02 -4.728795e-03
      vertex   -4.330127e-03 3.000000e-02 -2.898668e-03
    endloop
  endfacet
  facet normal -2.930765e-17 -1.000000e+00 -4.386200e-17
    outer loop
      vertex   -7.653669e-03 3.000000e-02 -1.588763e-01
      vertex   -4.330127e-03 3.000000e-02 -2.898668e-03
      vertex   -1.414214e-02 3.000000e-02 -1.545408e-01
    endloop
  endfacet
  facet normal -6.077970e-16 -1.000000e+00 -6.430826e-18
    outer loop
      vertex   -1.414214e-02 3.000000e-02 -1.545408e-01
      vertex   -4.330127e-03 3.000000e-02 -2.898668e-03
      vertex   -2.000000e-02 3.000000e-02 -1.403987e-01
    endloop
  endfacet
  facet normal -1.139459e-15 -1.000000e+00 -2.266525e-16
    outer loop
      vertex   -1.414214e-02 3.000000e-02 -1.545408e-01
      vertex   -2.000000e-02 3.000000e-02 -1.403987e-01
      vertex   -1.847759e-02 3.000000e-02 -1.480523e-01
    endloop
  endfacet
  facet normal -6.642262e-16 -1.000000e+00 -9.876419e-32
    outer loop
      vertex   -2.000000e-02 3.000000e-02 -1.403987e-01
      vertex   -4.330127e-03 3.000000e-02 -2.898668e-03
      vertex   -2.000000e-02 3.000000e-02 -3.986677e-04
    endloop
  endfacet
  facet normal -6.938894e-16 -1.000000e+00 -1.859271e-16
    outer loop
      vertex   -2.000000e-02 3.000000e-02 -3.986677e-04
      vertex   -4.330127e-03 3.000000e-02 -2.898668e-03
      vertex   -5.000000e-03 3.000000e-02 -3.986677e-04
    endloop
  endfacet
  facet normal -6.938894e-16 -1.000000e+00 4.209145e-17
    outer loop
      vertex   -2.000000e-02 3.000000e-02 -3.986677e-04
      vertex   -5.000000e-03 3.000000e-02 -3.986677e-04
      vertex   -1.414214e-02 3.000000e-02 1.374347e-02
    endloop
  endfacet
  facet normal -2.289510e-16 -1.000000e+00 3.426493e-16
    outer loop
      vertex   -1.414214e-02 3.000000e-02 1.374347e-02
      vertex   -5.000000e-03 3.000000e-02 -3.986677e-04
      vertex   -7.653669e-03 3.000000e-02 1.807892e-02
    endloop
  endfacet
  facet normal -9.124452e-16 -1.000000e+00 2.444889e-16
    outer loop
      vertex   -7.653669e-03 3.000000e-02 1.807892e-02
      vertex   -5.000000e-03 3.000000e-02 -3.986677e-04
      vertex   -4.330127e-03 3.000000e-02 2.101332e-03
    endloop
  endfacet
  facet normal -3.595071e-16 -1.000000e+00 3.595071e-16
    outer loop
      vertex   -7.653669e-03 3.000000e-02 1.807892e-02
      vertex   -4.330127e-03 3.000000e-02 2.101332e-03
      vertex   -2.500000e-03 3.000000e-02 3.931459e-03
    endloop
  endfacet
  facet normal -9.363243e-16 -1.000000e+00 1.493829e-16
    outer loop
      vertex   -7.653669e-03 3.000000e-02 1.807892e-02
      vertex   -2.500000e-03 3.000000e-02 3.931459e-03
      vertex   2.430650e-16 3.000000e-02 1.960133e-02
    endloop
  endfacet
  facet normal 0.000000e+00 -1.000000e+00 -0.000000e+00
    outer loop
      vertex   2.430650e-16 3.000000e-02 1.960133e-02
      vertex   -2.500000e-03 3.000000e-02 3.931459e-03
      vertex   2.449375e-16 3.000000e-02 4.601332e-03
    endloop
  endfacet
  facet normal 0.000000e+00 -1.000000e+00 0.000000e+00
    outer loop
      vertex   2.430650e-16 3.000000e-02 1.960133e-02
      vertex   2.449375e-16 3.000000e-02 4.601332e-03
      vertex   2.500000e-03 3.000000e-02 3.931459e-03
    endloop
  endfacet
  facet normal -4.681621e-16 -1.000000e+00 -7.469144e-17
    outer loop
      vertex   2.430650e-16 3.000000e-02 1.960133e-02
      vertex   2.500000e-03 3.000000e-02 3.931459e-03
      vertex   7.653669e-03 3.000000e-02 1.807892e-02
    endloop
  endfacet
  facet normal -1.797535e-16 -1.000000e+00 -1.797535e-16
    outer loop
      vertex   7.653669e-03 3.000000e-02 1.807892e-02
      vertex   2.500000e-03 3.000000e-02 3.931459e-03
      vertex   4.330127e-03 3.000000e-02 2.101332e-03
    endloop
  endfacet
  facet normal -4.562226e-16 -1.000000e+00 -1.222445e-16
    outer loop
      vertex   7.653669e-03 3.000000e-02 1.807892e-02
      vertex   4.330127e-03 3.000000e-02 2.101332e-03
      vertex   5.000000e-03 3.000000e-02 -3.986677e-04
    endloop
  endfacet
  facet normal -4.625929e-16 -1.000000e+00 1.239514e-16
    outer loop
      vertex   4.330127e-03 3.000000e-02 -2.898668e-03
      vertex   2.000000e-02 3.000000e-02 -3.986677e-04
      vertex   5.000000e-03 3.000000e-02 -3.986677e-04
    endloop
  endfacet
  facet normal -4.625929e-16 -1.000000e+00 5.371468e-17
    outer loop
      vertex   5.000000e-03 3.000000e-02 -3.986677e-04
      vertex   2.000000e-02 3.000000e-02 -3.986677e-04
      vertex   1.414214e-02 3.000000e-02 1.374347e-02
    endloop
  endfacet
  facet normal -1.144755e-16 -1.000000e+00 -1.713247e-16
    outer loop
      vertex   5.000000e-03 3.000000e-02 -3.986677e-04
      vertex   1.414214e-02 3.000000e-02 1.374347e-02
      vertex   7.653669e-03 3.000000e-02 1.807892e-02
    endloop
  endfacet
  facet normal -2.177917e-17 -1.000000e+00 2.177917e-17
    outer loop
      vertex   2.500000e-03 3.000000e-02 -4.728795e-03
      vertex   7.653669e-03 3.000000e-02 -1.588763e-01
      vertex   4.330127e-03 3.000000e-02 -2.898668e-03
    endloop
  endfacet
  facet normal -1.465382e-17 -1.000000e+00 2.193100e-17
    outer loop
      vertex   4.330127e-03 3.000000e-02 -2.898668e-03
      vertex   7.653669e-03 3.000000e-02 -1.588763e-01
      vertex   1.414214e-02 3.000000e-02 -1.545408e-01
    endloop
  endfacet
  facet normal -5.600245e-16 -1.000000e+00 -1.335722e-17
    outer loop
      vertex   4.330127e-03 3.000000e-02 -2.898668e-03
      vertex   1.414214e-02 3.000000e-02 -1.545408e-01
      vertex   2.000000e-02 3.000000e-02 -1.403987e-01
    endloop
  endfacet
  facet normal -1.139459e-15 -1.000000e+00 2.266525e-16
    outer loop
      vertex   2.000000e-02 3.000000e-02 -1.403987e-01
      vertex   1.414214e-02 3.000000e-02 -1.545408e-01
      vertex   1.847759e-02 3.000000e-02 -1.480523e-01
    endloop
  endfacet
  facet normal -4.547578e-16 -1.000000e+00 7.303240e-18
    outer loop
      vertex   7.653669e-03 3.000000e-02 -1.588763e-01
      vertex   2.500000e-03 3.000000e-02 -4.728795e-03
      vertex   2.679836e-16 3.000000e-02 -1.603987e-01
    endloop
  endfacet
  facet normal -4.428175e-16 -1.000000e+00 -4.389519e-32
    outer loop
      vertex   2.000000e-02 3.000000e-02 -1.403987e-01
      vertex   2.000000e-02 3.000000e-02 -3.986677e-04
      vertex   4.330127e-03 3.000000e-02 -2.898668e-03
    endloop
  endfacet
  facet normal -1.139459e-15 -1.000000e+00 -2.266525e-16
    outer loop
      vertex   2.000000e-02 3.000000e-02 -3.986677e-04
      vertex   1.847759e-02 3.000000e-02 7.255001e-03
      vertex   1.414214e-02 3.000000e-02 1.374347e-02
    endloop
  endfacet
  facet normal -1.139459e-15 -1.000000e+00 2.266525e-16
    outer loop
      vertex   -1.414214e-02 3.000000e-02 1.374347e-02
      vertex   -1.847759e-02 3.000000e-02 7.255001e-03
      vertex   -2.000000e-02 3.000000e-02 -3.986677e-04
    endloop
  endfacet
  facet normal 5.204170e-16 1.000000e+00 5.337611e-17
    outer loop
      vertex   2.000000e-02 3.500000e-02 -7.039867e-02
      vertex   2.644137e-16 3.500000e-02 -1.353987e-01
      vertex   -2.000000e-02 3.500000e-02 -7.039867e-02
    endloop
  endfacet
  facet normal 2.642550e-17 1.000000e+00 -9.862129e-17
    outer loop
      vertex   -2.000000e-02 3.500000e-02 -7.039867e-02
      vertex   2.644137e-16 3.500000e-02 -1.353987e-01
      vertex   -2.500000e-03 3.500000e-02 -1.360685e-01
    endloop
  endfacet
  facet normal 8.343038e-17 1.000000e+00 -8.343038e-17
    outer loop
      vertex   -2.000000e-02 3.500000e-02 -7.039867e-02
      vertex   -2.500000e-03 3.500000e-02 -1.360685e-01
      vertex   -4.330127e-03 3.500000e-02 -1.378987e-01
    endloop
  endfacet
  facet normal 8.856350e-16 1.000000e+00 1.316856e-31
    outer loop
      vertex   2.000000e-02 3.500000e-02 -1.403987e-01
      vertex   4.330127e-03 3.500000e-02 -1.378987e-01
      vertex   2.000000e-02 3.500000e-02 -7.039867e-02
    endloop
  endfacet
  facet normal 1.668608e-16 1.000000e+00 1.668608e-16
    outer loop
      vertex   2.000000e-02 3.500000e-02 -7.039867e-02
      vertex   4.330127e-03 3.500000e-02 -1.378987e-01
      vertex   2.500000e-03 3.500000e-02 -1.360685e-01
    endloop
  endfacet
  facet normal 5.285099e-17 1.000000e+00 1.972426e-16
    outer loop
      vertex   2.000000e-02 3.500000e-02 -7.039867e-02
      vertex   2.500000e-03 3.500000e-02 -1.360685e-01
      vertex   2.644137e-16 3.500000e-02 -1.353987e-01
    endloop
  endfacet
  facet normal 9.251859e-16 1.000000e+00 2.479028e-16
    outer loop
      vertex   4.330127e-03 3.500000e-02 -1.378987e-01
      vertex   2.000000e-02 3.500000e-02 -1.403987e-01
      vertex   5.000000e-03 3.500000e-02 -1.403987e-01
    endloop
  endfacet
  facet normal 9.251859e-16 1.000000e+00 -1.840309e-16
    outer loop
      vertex   5.000000e-03 3.500000e-02 -1.403987e-01
      vertex   2.000000e-02 3.500000e-02 -1.403987e-01
      vertex   1.847759e-02 3.500000e-02 -1.480523e-01
    endloop
  endfacet
  facet normal 1.186706e-15 1.000000e+00 2.764881e-16
    outer loop
      vertex   5.000000e-03 3.500000e-02 -1.403987e-01
      vertex   1.847759e-02 3.500000e-02 -1.480523e-01
      vertex   1.414214e-02 3.500000e-02 -1.545408e-01
    endloop
  endfacet
  facet normal 2.289510e-16 1.000000e+00 -3.426493e-16
    outer loop
      vertex   1.414214e-02 3.500000e-02 -1.545408e-01
      vertex   7.653669e-03 3.500000e-02 -1.588763e-01
      vertex   5.000000e-03 3.500000e-02 -1.403987e-01
    endloop
  endfacet
  facet normal 9.124452e-16 1.000000e+00 -2.444889e-16
    outer loop
      vertex   5.000000e-03 3.500000e-02 -1.403987e-01
      vertex   7.653669e-03 3.500000e-02 -1.588763e-01
      vertex   4.330127e-03 3.500000e-02 -1.428987e-01
    endloop
  endfacet
  facet normal 3.595071e-16 1.000000e+00 -3.595071e-16
    outer loop
      vertex   4.330127e-03 3.500000e-02 -1.428987e-01
      vertex   7.653669e-03 3.500000e-02 -1.588763e-01
      vertex   2.500000e-03 3.500000e-02 -1.447288e-01
    endloop
  endfacet
  facet normal 9.363243e-16 1.000000e+00 -1.493829e-16
    outer loop
      vertex   2.500000e-03 3.500000e-02 -1.447288e-01
      vertex   7.653669e-03 3.500000e-02 -1.588763e-01
      vertex   2.699837e-16 3.500000e-02 -1.603987e-01
    endloop
  endfacet
  facet normal 0.000000e+00 1.000000e+00 0.000000e+00
    outer loop
      vertex   2.500000e-03 3.500000e-02 -1.447288e-01
      vertex   2.699837e-16 3.500000e-02 -1.603987e-01
      vertex   2.662743e-16 3.500000e-02 -1.453987e-01
    endloop
  endfacet
  facet normal 0.000000e+00 1.000000e+00 0.000000e+00
    outer loop
      vertex   2.662743e-16 3.500000e-02 -1.453987e-01
      vertex   2.699837e-16 3.500000e-02 -1.603987e-01
      vertex   -2.500000e-03 3.500000e-02 -1.447288e-01
    endloop
  endfacet
  facet normal 0.000000e+00 1.000000e+00 0.000000e+00
    outer loop
      vertex   -2.500000e-03 3.500000e-02 -1.447288e-01
      vertex   2.699837e-16 3.500000e-02 -1.603987e-01
      vertex   -7.653669e-03 3.500000e-02 -1.588763e-01
    endloop
  endfacet
  facet normal 0.000000e+00 1.000000e+00 0.000000e+00
    outer loop
      vertex   -2.500000e-03 3.500000e-02 -1.447288e-01
      vertex   -7.653669e-03 3.500000e-02 -1.588763e-01
      vertex   -4.330127e-03 3.500000e-02 -1.428987e-01
    endloop
  endfacet
  facet normal 0.000000e+00 1.000000e+00 0.000000e+00
    outer loop
      vertex   -4.330127e-03 3.500000e-02 -1.428987e-01
      vertex   -7.653669e-03 3.500000e-02 -1.588763e-01
      vertex   -5.000000e-03 3.500000e-02 -1.403987e-01
    endloop
  endfacet
  facet normal 0.000000e+00 1.000000e+00 0.000000e+00
    outer loop
      vertex   -5.000000e-03 3.500000e-02 -1.403987e-01
      vertex   -7.653669e-03 3.500000e-02 -1.588763e-01
      vertex   -1.414214e-02 3.500000e-02 -1.545408e-01
    endloop
  endfacet
  facet normal 8.134787e-16 1.000000e+00 -5.258705e-16
    outer loop
      vertex   -5.000000e-03 3.500000e-02 -1.403987e-01
      vertex   -1.414214e-02 3.500000e-02 -1.545408e-01
      vertex   -1.847759e-02 3.500000e-02 -1.480523e-01
    endloop
  endfacet
  facet normal 4.625929e-16 1.000000e+00 9.201545e-17
    outer loop
      vertex   -1.847759e-02 3.500000e-02 -1.480523e-01
      vertex   -2.000000e-02 3.500000e-02 -1.403987e-01
      vertex   -5.000000e-03 3.500000e-02 -1.403987e-01
    endloop
  endfacet
  facet normal 4.625929e-16 1.000000e+00 -1.239514e-16
    outer loop
      vertex   -5.000000e-03 3.500000e-02 -1.403987e-01
      vertex   -2.000000e-02 3.500000e-02 -1.403987e-01
      vertex   -4.330127e-03 3.500000e-02 -1.378987e-01
    endloop
  endfacet
  facet normal 4.428175e-16 1.000000e+00 8.779039e-32
    outer loop
      vertex   -4.330127e-03 3.500000e-02 -1.378987e-01
      vertex   -2.000000e-02 3.500000e-02 -1.403987e-01
      vertex   -2.000000e-02 3.500000e-02 -7.039867e-02
    endloop
  endfacet
  facet normal -0.000000e+00 0.000000e+00 1.000000e+00
    outer loop
      vertex   -2.000000e-02 3.500000e-02 -6.029706e-02
      vertex   2.000000e-02 3.500000e-02 -6.029706e-02
      vertex   -2.000000e-02 6.500000e-02 -6.029706e-02
    endloop
  endfacet
  facet normal 0.000000e+00 0.000000e+00 1.000000e+00
    outer loop
      vertex   -2.000000e-02 6.500000e-02 -6.029706e-02
      vertex   2.000000e-02 3.500000e-02 -6.029706e-02
      vertex   2.000000e-02 6.500000e-02 -6.029706e-02
    endloop
  endfacet
  facet normal 0.000000e+00 0.000000e+00 -1.000000e+00
    outer loop
      vertex   2.000000e-02 3.500000e-02 -7.039867e-02
      vertex   -2.000000e-02 3.500000e-02 -7.039867e-02
      vertex   2.000000e-02 6.500000e-02 -7.039867e-02
    endloop
  endfacet
  facet normal -0.000000e+00 0.000000e+00 -1.000000e+00
    outer loop
      vertex   2.000000e-02 6.500000e-02 -7.039867e-02
      vertex   -2.000000e-02 3.500000e-02 -7.039867e-02
      vertex   -2.000000e-02 6.500000e-02 -7.039867e-02
    endloop
  endfacet
  facet normal -6.171099e-17 -1.000000e+00 -2.303085e-16
    outer loop
      vertex   -2.500000e-03 6.500000e-02 -4.728795e-03
      vertex   -2.000000e-02 6.500000e-02 -6.029706e-02
      vertex   2.595742e-16 6.500000e-02 -5.398668e-03
    endloop
  endfacet
  facet normal -6.938894e-16 -1.000000e+00 -8.770430e-32
    outer loop
      vertex   2.595742e-16 6.500000e-02 -5.398668e-03
      vertex   -2.000000e-02 6.500000e-02 -6.029706e-02
      vertex   2.000000e-02 6.500000e-02 -6.029706e-02
    endloop
  endfacet
  facet normal -6.171099e-17 -1.000000e+00 2.303085e-16
    outer loop
      vertex   2.595742e-16 6.500000e-02 -5.398668e-03
      vertex   2.000000e-02 6.500000e-02 -6.029706e-02
      vertex   2.500000e-03 6.500000e-02 -4.728795e-03
    endloop
  endfacet
  facet normal -1.899291e-16 -1.000000e+00 1.899291e-16
    outer loop
      vertex   2.500000e-03 6.500000e-02 -4.728795e-03
      vertex   2.000000e-02 6.500000e-02 -6.029706e-02
      vertex   4.330127e-03 6.500000e-02 -2.898668e-03
    endloop
  endfacet
  facet normal -8.856350e-16 -1.000000e+00 -1.025959e-31
    outer loop
      vertex   4.330127e-03 6.500000e-02 -2.898668e-03
      vertex   2.000000e-02 6.500000e-02 -6.029706e-02
      vertex   2.000000e-02 6.500000e-02 -3.986677e-04
    endloop
  endfacet
  facet normal -9.251859e-16 -1.000000e+00 2.479028e-16
    outer loop
      vertex   4.330127e-03 6.500000e-02 -2.898668e-03
      vertex   2.000000e-02 6.500000e-02 -3.986677e-04
      vertex   5.000000e-03 6.500000e-02 -3.986677e-04
    endloop
  endfacet
  facet normal -9.251859e-16 -1.000000e+00 -1.840309e-16
    outer loop
      vertex   5.000000e-03 6.500000e-02 -3.986677e-04
      vertex   2.000000e-02 6.500000e-02 -3.986677e-04
      vertex   1.847759e-02 6.500000e-02 7.255001e-03
    endloop
  endfacet
  facet normal -7.464544e-16 -1.000000e+00 -4.987649e-16
    outer loop
      vertex   5.000000e-03 6.500000e-02 -3.986677e-04
      vertex   1.847759e-02 6.500000e-02 7.255001e-03
      vertex   1.414214e-02 6.500000e-02 1.374347e-02
    endloop
  endfacet
  facet normal -1.899291e-16 -1.000000e+00 -1.899291e-16
    outer loop
      vertex   -2.500000e-03 6.500000e-02 -4.728795e-03
      vertex   -4.330127e-03 6.500000e-02 -2.898668e-03
      vertex   -2.000000e-02 6.500000e-02 -6.029706e-02
    endloop
  endfacet
  facet normal -8.856350e-16 -1.000000e+00 -1.538938e-31
    outer loop
      vertex   -2.000000e-02 6.500000e-02 -6.029706e-02
      vertex   -4.330127e-03 6.500000e-02 -2.898668e-03
      vertex   -2.000000e-02 6.500000e-02 -3.986677e-04
    endloop
  endfacet
  facet normal -9.251859e-16 -1.000000e+00 -2.479028e-16
    outer loop
      vertex   -2.000000e-02 6.500000e-02 -3.986677e-04
      vertex   -4.330127e-03 6.500000e-02 -2.898668e-03
      vertex   -5.000000e-03 6.500000e-02 -3.986677e-04
    endloop
  endfacet
  facet normal -9.251859e-16 -1.000000e+00 1.840309e-16
    outer loop
      vertex   -2.000000e-02 6.500000e-02 -3.986677e-04
      vertex   -5.000000e-03 6.500000e-02 -3.986677e-04
      vertex   -1.847759e-02 6.500000e-02 7.255001e-03
    endloop
  endfacet
  facet normal -7.464544e-16 -1.000000e+00 4.987649e-16
    outer loop
      vertex   -1.847759e-02 6.500000e-02 7.255001e-03
      vertex   -5.000000e-03 6.500000e-02 -3.986677e-04
      vertex   -1.414214e-02 6.500000e-02 1.374347e-02
    endloop
  endfacet
  facet normal -1.073176e-15 -1.000000e+00 2.875567e-16
    outer loop
      vertex   -1.414214e-02 6.500000e-02 1.374347e-02
      vertex   -5.000000e-03 6.500000e-02 -3.986677e-04
      vertex   -4.330127e-03 6.500000e-02 2.101332e-03
    endloop
  endfacet
  facet normal -1.877839e-15 -1.000000e+00 -3.906144e-16
    outer loop
      vertex   -1.414214e-02 6.500000e-02 1.374347e-02
      vertex   -4.330127e-03 6.500000e-02 2.101332e-03
      vertex   -7.653669e-03 6.500000e-02 1.807892e-02
    endloop
  endfacet
  facet normal 0.000000e+00 -1.000000e+00 0.000000e+00
    outer loop
      vertex   -7.653669e-03 6.500000e-02 1.807892e-02
      vertex   -4.330127e-03 6.500000e-02 2.101332e-03
      vertex   -2.500000e-03 6.500000e-02 3.931459e-03
    endloop
  endfacet
  facet normal 0.000000e+00 -1.000000e+00 0.000000e+00
    outer loop
      vertex   -7.653669e-03 6.500000e-02 1.807892e-02
      vertex   -2.500000e-03 6.500000e-02 3.931459e-03
      vertex   2.570657e-16 6.500000e-02 1.960133e-02
    endloop
  endfacet
  facet normal 0.000000e+00 -1.000000e+00 -0.000000e+00
    outer loop
      vertex   2.570657e-16 6.500000e-02 1.960133e-02
      vertex   -2.500000e-03 6.500000e-02 3.931459e-03
      vertex   2.589382e-16 6.500000e-02 4.601332e-03
    endloop
  endfacet
  facet normal 0.000000e+00 -1.000000e+00 0.000000e+00
    outer loop
      vertex   2.570657e-16 6.500000e-02 1.960133e-02
      vertex   2.589382e-16 6.500000e-02 4.601332e-03
      vertex   2.500000e-03 6.500000e-02 3.931459e-03
    endloop
  endfacet
  facet normal 0.000000e+00 -1.000000e+00 0.000000e+00
    outer loop
      vertex   2.570657e-16 6.500000e-02 1.960133e-02
      vertex   2.500000e-03 6.500000e-02 3.931459e-03
      vertex   7.653669e-03 6.500000e-02 1.807892e-02
    endloop
  endfacet
  facet normal 0.000000e+00 -1.000000e+00 0.000000e+00
    outer loop
      vertex   7.653669e-03 6.500000e-02 1.807892e-02
      vertex   2.500000e-03 6.500000e-02 3.931459e-03
      vertex   4.330127e-03 6.500000e-02 2.101332e-03
    endloop
  endfacet
  facet normal -1.877839e-15 -1.000000e+00 3.906144e-16
    outer loop
      vertex   7.653669e-03 6.500000e-02 1.807892e-02
      vertex   4.330127e-03 6.500000e-02 2.101332e-03
      vertex   1.414214e-02 6.500000e-02 1.374347e-02
    endloop
  endfacet
  facet normal -1.073176e-15 -1.000000e+00 -2.875567e-16
    outer loop
      vertex   1.414214e-02 6.500000e-02 1.374347e-02
      vertex   4.330127e-03 6.500000e-02 2.101332e-03
      vertex   5.000000e-03 6.500000e-02 -3.986677e-04
    endloop
  endfacet
  facet normal 2.588190e-01 -1.675614e-16 9.659258e-01
    outer loop
      vertex   -2.500000e-03 7.000000e-02 -4.728795e-03
      vertex   -2.500000e-03 6.500000e-02 -4.728795e-03
      vertex   2.621866e-16 7.000000e-02 -5.398668e-03
    endloop
  endfacet
  facet normal 2.588190e-01 -1.352291e-16 9.659258e-01
    outer loop
      vertex   2.621866e-16 7.000000e-02 -5.398668e-03
      vertex   -2.500000e-03 6.500000e-02 -4.728795e-03
      vertex   2.595742e-16 6.500000e-02 -5.398668e-03
    endloop
  endfacet
  facet normal -2.588190e-01 1.352291e-16 9.659258e-01
    outer loop
      vertex   2.621866e-16 7.000000e-02 -5.398668e-03
      vertex   2.595742e-16 6.500000e-02 -5.398668e-03
      vertex   2.500000e-03 7.000000e-02 -4.728795e-03
    endloop
  endfacet
  facet normal -2.588190e-01 1.675614e-16 9.659258e-01
    outer loop
      vertex   2.500000e-03 7.000000e-02 -4.728795e-03
      vertex   2.595742e-16 6.500000e-02 -5.398668e-03
      vertex   2.500000e-03 6.500000e-02 -4.728795e-03
    endloop
  endfacet
  facet normal -7.071068e-01 1.226635e-16 7.071068e-01
    outer loop
      vertex   2.500000e-03 7.000000e-02 -4.728795e-03
      vertex   2.500000e-03 6.500000e-02 -4.728795e-03
      vertex   4.330127e-03 7.000000e-02 -2.898668e-03
    endloop
  endfacet
  facet normal -7.071068e-01 6.133174e-16 7.071068e-01
    outer loop
      vertex   4.330127e-03 7.000000e-02 -2.898668e-03
      vertex   2.500000e-03 6.500000e-02 -4.728795e-03
      vertex   4.330127e-03 6.500000e-02 -2.898668e-03
    endloop
  endfacet
  facet normal -9.659258e-01 2.244897e-16 2.588190e-01
    outer loop
      vertex   4.330127e-03 7.000000e-02 -2.898668e-03
      vertex   4.330127e-03 6.500000e-02 -2.898668e-03
      vertex   5.000000e-03 7.000000e-02 -3.986677e-04
    endloop
  endfacet
  facet normal -9.659258e-01 3.351228e-16 2.588190e-01
    outer loop
      vertex   5.000000e-03 7.000000e-02 -3.986677e-04
      vertex   4.330127e-03 6.500000e-02 -2.898668e-03
      vertex   5.000000e-03 6.500000e-02 -3.986677e-04
    endloop
  endfacet
  facet normal -9.659258e-01 3.351228e-16 -2.588190e-01
    outer loop
      vertex   5.000000e-03 7.000000e-02 -3.986677e-04
      vertex   5.000000e-03 6.500000e-02 -3.986677e-04
      vertex   4.330127e-03 7.000000e-02 2.101332e-03
    endloop
  endfacet
  facet normal -9.659258e-01 5.580008e-16 -2.588190e-01
    outer loop
      vertex   4.330127e-03 7.000000e-02 2.101332e-03
      vertex   5.000000e-03 6.500000e-02 -3.986677e-04
      vertex   4.330127e-03 6.500000e-02 2.101332e-03
    endloop
  endfacet
  facet normal -7.071068e-01 1.839952e-16 -7.071068e-01
    outer loop
      vertex   4.330127e-03 7.000000e-02 2.101332e-03
      vertex   4.330127e-03 6.500000e-02 2.101332e-03
      vertex   2.500000e-03 7.000000e-02 3.931459e-03
    endloop
  endfacet
  facet normal -7.071068e-01 4.293222e-16 -7.071068e-01
    outer loop
      vertex   2.500000e-03 7.000000e-02 3.931459e-03
      vertex   4.330127e-03 6.500000e-02 2.101332e-03
      vertex   2.500000e-03 6.500000e-02 3.931459e-03
    endloop
  endfacet
  facet normal -2.588190e-01 3.447934e-17 -9.659258e-01
    outer loop
      vertex   2.500000e-03 7.000000e-02 3.931459e-03
      vertex   2.500000e-03 6.500000e-02 3.931459e-03
      vertex   2.609383e-16 7.000000e-02 4.601332e-03
    endloop
  endfacet
  facet normal -2.588190e-01 1.035329e-16 -9.659258e-01
    outer loop
      vertex   2.609383e-16 7.000000e-02 4.601332e-03
      vertex   2.500000e-03 6.500000e-02 3.931459e-03
      vertex   2.589382e-16 6.500000e-02 4.601332e-03
    endloop
  endfacet
  facet normal 2.588190e-01 -1.035329e-16 -9.659258e-01
    outer loop
      vertex   2.609383e-16 7.000000e-02 4.601332e-03
      vertex   2.589382e-16 6.500000e-02 4.601332e-03
      vertex   -2.500000e-03 7.000000e-02 3.931459e-03
    endloop
  endfacet
  facet normal 2.588190e-01 1.330821e-16 -9.659258e-01
    outer loop
      vertex   -2.500000e-03 7.000000e-02 3.931459e-03
      vertex   2.589382e-16 6.500000e-02 4.601332e-03
      vertex   -2.500000e-03 6.500000e-02 3.931459e-03
    endloop
  endfacet
  facet normal 7.071068e-01 -3.066587e-16 -7.071068e-01
    outer loop
      vertex   -2.500000e-03 7.000000e-02 3.931459e-03
      vertex   -2.500000e-03 6.500000e-02 3.931459e-03
      vertex   -4.330127e-03 7.000000e-02 2.101332e-03
    endloop
  endfacet
  facet normal 7.071068e-01 -1.839952e-16 -7.071068e-01
    outer loop
      vertex   -4.330127e-03 7.000000e-02 2.101332e-03
      vertex   -2.500000e-03 6.500000e-02 3.931459e-03
      vertex   -4.330127e-03 6.500000e-02 2.101332e-03
    endloop
  endfacet
  facet normal 9.659258e-01 -5.580008e-16 -2.588190e-01
    outer loop
      vertex   -4.330127e-03 7.000000e-02 2.101332e-03
      vertex   -4.330127e-03 6.500000e-02 2.101332e-03
      vertex   -5.000000e-03 7.000000e-02 -3.986677e-04
    endloop
  endfacet
  facet normal 9.659258e-01 -1.675614e-16 -2.588190e-01
    outer loop
      vertex   -5.000000e-03 7.000000e-02 -3.986677e-04
      vertex   -4.330127e-03 6.500000e-02 2.101332e-03
      vertex   -5.000000e-03 6.500000e-02 -3.986677e-04
    endloop
  endfacet
  facet normal 9.659258e-01 -1.675614e-16 2.588190e-01
    outer loop
      vertex   -5.000000e-03 7.000000e-02 -3.986677e-04
      vertex   -5.000000e-03 6.500000e-02 -3.986677e-04
      vertex   -4.330127e-03 7.000000e-02 -2.898668e-03
    endloop
  endfacet
  facet normal 9.659258e-01 -2.244897e-16 2.588190e-01
    outer loop
      vertex   -4.330127e-03 7.000000e-02 -2.898668e-03
      vertex   -5.000000e-03 6.500000e-02 -3.986677e-04
      vertex   -4.330127e-03 6.500000e-02 -2.898668e-03
    endloop
  endfacet
  facet normal 7.071068e-01 -6.133174e-16 7.071068e-01
    outer loop
      vertex   -4.330127e-03 7.000000e-02 -2.898668e-03
      vertex   -4.330127e-03 6.500000e-02 -2.898668e-03
      vertex   -2.500000e-03 7.000000e-02 -4.728795e-03
    endloop
  endfacet
  facet normal 7.071068e-01 -1.226635e-16 7.071068e-01
    outer loop
      vertex   -2.500000e-03 7.000000e-02 -4.728795e-03
      vertex   -4.330127e-03 6.500000e-02 -2.898668e-03
      vertex   -2.500000e-03 6.500000e-02 -4.728795e-03
    endloop
  endfacet
  facet normal -9.807853e-01 1.361113e-15 1.950903e-01
    outer loop
      vertex   -2.000000e-02 7.000000e-02 -3.986677e-04
      vertex   -2.000000e-02 6.500000e-02 -3.986677e-04
      vertex   -1.847759e-02 7.000000e-02 7.255001e-03
    endloop
  endfacet
  facet normal -9.807853e-01 0.000000e+00 1.950903e-01
    outer loop
      vertex   -1.847759e-02 7.000000e-02 7.255001e-03
      vertex   -2.000000e-02 6.500000e-02 -3.986677e-04
      vertex   -1.847759e-02 6.500000e-02 7.255001e-03
    endloop
  endfacet
  facet normal -8.314696e-01 0.000000e+00 5.555702e-01
    outer loop
      vertex   -1.847759e-02 7.000000e-02 7.255001e-03
      vertex   -1.847759e-02 6.500000e-02 7.255001e-03
      vertex   -1.414214e-02 7.000000e-02 1.374347e-02
    endloop
  endfacet
  facet normal -8.314696e-01 2.884740e-16 5.555702e-01
    outer loop
      vertex   -1.414214e-02 7.000000e-02 1.374347e-02
      vertex   -1.847759e-02 6.500000e-02 7.255001e-03
      vertex   -1.414214e-02 6.500000e-02 1.374347e-02
    endloop
  endfacet
  facet normal -5.555702e-01 1.927521e-16 8.314696e-01
    outer loop
      vertex   -1.414214e-02 7.000000e-02 1.374347e-02
      vertex   -1.414214e-02 6.500000e-02 1.374347e-02
      vertex   -7.653669e-03 7.000000e-02 1.807892e-02
    endloop
  endfacet
  facet normal -5.555702e-01 2.891282e-16 8.314696e-01
    outer loop
      vertex   -7.653669e-03 7.000000e-02 1.807892e-02
      vertex   -1.414214e-02 6.500000e-02 1.374347e-02
      vertex   -7.653669e-03 6.500000e-02 1.807892e-02
    endloop
  endfacet
  facet normal -1.950903e-01 1.015283e-16 9.807853e-01
    outer loop
      vertex   -7.653669e-03 7.000000e-02 1.807892e-02
      vertex   -7.653669e-03 6.500000e-02 1.807892e-02
      vertex   2.590658e-16 7.000000e-02 1.960133e-02
    endloop
  endfacet
  facet normal -1.950903e-01 7.804012e-17 9.807853e-01
    outer loop
      vertex   2.590658e-16 7.000000e-02 1.960133e-02
      vertex   -7.653669e-03 6.500000e-02 1.807892e-02
      vertex   2.570657e-16 6.500000e-02 1.960133e-02
    endloop
  endfacet
  facet normal 1.950903e-01 -7.804012e-17 9.807853e-01
    outer loop
      vertex   2.590658e-16 7.000000e-02 1.960133e-02
      vertex   2.570657e-16 6.500000e-02 1.960133e-02
      vertex   7.653669e-03 7.000000e-02 1.807892e-02
    endloop
  endfacet
  facet normal 1.950903e-01 -6.768555e-17 9.807853e-01
    outer loop
      vertex   7.653669e-03 7.000000e-02 1.807892e-02
      vertex   2.570657e-16 6.500000e-02 1.960133e-02
      vertex   7.653669e-03 6.500000e-02 1.807892e-02
    endloop
  endfacet
  facet normal 5.555702e-01 -1.927521e-16 8.314696e-01
    outer loop
      vertex   7.653669e-03 7.000000e-02 1.807892e-02
      vertex   7.653669e-03 6.500000e-02 1.807892e-02
      vertex   1.414214e-02 7.000000e-02 1.374347e-02
    endloop
  endfacet
  facet normal 5.555702e-01 -1.927521e-16 8.314696e-01
    outer loop
      vertex   1.414214e-02 7.000000e-02 1.374347e-02
      vertex   7.653669e-03 6.500000e-02 1.807892e-02
      vertex   1.414214e-02 6.500000e-02 1.374347e-02
    endloop
  endfacet
  facet normal 8.314696e-01 -2.884740e-16 5.555702e-01
    outer loop
      vertex   1.414214e-02 7.000000e-02 1.374347e-02
      vertex   1.414214e-02 6.500000e-02 1.374347e-02
      vertex   1.847759e-02 7.000000e-02 7.255001e-03
    endloop
  endfacet
  facet normal 8.314696e-01 -5.769479e-16 5.555702e-01
    outer loop
      vertex   1.847759e-02 7.000000e-02 7.255001e-03
      vertex   1.414214e-02 6.500000e-02 1.374347e-02
      vertex   1.847759e-02 6.500000e-02 7.255001e-03
    endloop
  endfacet
  facet normal 9.807853e-01 -6.805565e-16 1.950903e-01
    outer loop
      vertex   1.847759e-02 7.000000e-02 7.255001e-03
      vertex   1.847759e-02 6.500000e-02 7.255001e-03
      vertex   2.000000e-02 7.000000e-02 -3.986677e-04
    endloop
  endfacet
  facet normal 9.807853e-01 -1.361113e-15 1.950903e-01
    outer loop
      vertex   2.000000e-02 7.000000e-02 -3.986677e-04
      vertex   1.847759e-02 6.500000e-02 7.255001e-03
      vertex   2.000000e-02 6.500000e-02 -3.986677e-04
    endloop
  endfacet
  facet normal 9.807853e-01 -1.361113e-15 -1.950903e-01
    outer loop
      vertex   2.000000e-02 7.000000e-02 -1.403987e-01
      vertex   2.000000e-02 6.500000e-02 -1.403987e-01
      vertex   1.847759e-02 7.000000e-02 -1.480523e-01
    endloop
  endfacet
  facet normal 9.807853e-01 -6.805565e-16 -1.950903e-01
    outer loop
      vertex   1.847759e-02 7.000000e-02 -1.480523e-01
      vertex   2.000000e-02 6.500000e-02 -1.403987e-01
      vertex   1.847759e-02 6.500000e-02 -1.480523e-01
    endloop
  endfacet
  facet normal 8.314696e-01 -5.769479e-16 -5.555702e-01
    outer loop
      vertex   1.847759e-02 7.000000e-02 -1.480523e-01
      vertex   1.847759e-02 6.500000e-02 -1.480523e-01
      vertex   1.414214e-02 7.000000e-02 -1.545408e-01
    endloop
  endfacet
  facet normal 8.314696e-01 0.000000e+00 -5.555702e-01
    outer loop
      vertex   1.414214e-02 7.000000e-02 -1.545408e-01
      vertex   1.847759e-02 6.500000e-02 -1.480523e-01
      vertex   1.414214e-02 6.500000e-02 -1.545408e-01
    endloop
  endfacet
  facet normal 5.555702e-01 0.000000e+00 -8.314696e-01
    outer loop
      vertex   1.414214e-02 7.000000e-02 -1.545408e-01
      vertex   1.414214e-02 6.500000e-02 -1.545408e-01
      vertex   7.653669e-03 7.000000e-02 -1.588763e-01
    endloop
  endfacet
  facet normal 5.555702e-01 -1.927521e-16 -8.314696e-01
    outer loop
      vertex   7.653669e-03 7.000000e-02 -1.588763e-01
      vertex   1.414214e-02 6.500000e-02 -1.545408e-01
      vertex   7.653669e-03 6.500000e-02 -1.588763e-01
    endloop
  endfacet
  facet normal 1.950903e-01 -6.768555e-17 -9.807853e-01
    outer loop
      vertex   7.653669e-03 7.000000e-02 -1.588763e-01
      vertex   7.653669e-03 6.500000e-02 -1.588763e-01
      vertex   2.790858e-16 7.000000e-02 -1.603987e-01
    endloop
  endfacet
  facet normal 1.950903e-01 -7.804012e-17 -9.807853e-01
    outer loop
      vertex   2.790858e-16 7.000000e-02 -1.603987e-01
      vertex   7.653669e-03 6.500000e-02 -1.588763e-01
      vertex   2.770857e-16 6.500000e-02 -1.603987e-01
    endloop
  endfacet
  facet normal -1.950903e-01 7.804012e-17 -9.807853e-01
    outer loop
      vertex   2.790858e-16 7.000000e-02 -1.603987e-01
      vertex   2.770857e-16 6.500000e-02 -1.603987e-01
      vertex   -7.653669e-03 7.000000e-02 -1.588763e-01
    endloop
  endfacet
  facet normal -1.950903e-01 6.768555e-17 -9.807853e-01
    outer loop
      vertex   -7.653669e-03 7.000000e-02 -1.588763e-01
      vertex   2.770857e-16 6.500000e-02 -1.603987e-01
      vertex   -7.653669e-03 6.500000e-02 -1.588763e-01
    endloop
  endfacet
  facet normal -5.555702e-01 1.927521e-16 -8.314696e-01
    outer loop
      vertex   -7.653669e-03 7.000000e-02 -1.588763e-01
      vertex   -7.653669e-03 6.500000e-02 -1.588763e-01
      vertex   -1.414214e-02 7.000000e-02 -1.545408e-01
    endloop
  endfacet
  facet normal -5.555702e-01 -0.000000e+00 -8.314696e-01
    outer loop
      vertex   -1.414214e-02 7.000000e-02 -1.545408e-01
      vertex   -7.653669e-03 6.500000e-02 -1.588763e-01
      vertex   -1.414214e-02 6.500000e-02 -1.545408e-01
    endloop
  endfacet
  facet normal -8.314696e-01 -0.000000e+00 -5.555702e-01
    outer loop
      vertex   -1.414214e-02 7.000000e-02 -1.545408e-01
      vertex   -1.414214e-02 6.500000e-02 -1.545408e-01
      vertex   -1.847759e-02 7.000000e-02 -1.480523e-01
    endloop
  endfacet
  facet normal -8.314696e-01 5.769479e-16 -5.555702e-01
    outer loop
      vertex   -1.847759e-02 7.000000e-02 -1.480523e-01
      vertex   -1.414214e-02 6.500000e-02 -1.545408e-01
      vertex   -1.847759e-02 6.500000e-02 -1.480523e-01
    endloop
  endfacet
  facet normal -9.807853e-01 6.805565e-16 -1.950903e-01
    outer loop
      vertex   -1.847759e-02 7.000000e-02 -1.480523e-01
      vertex   -1.847759e-02 6.500000e-02 -1.480523e-01
      vertex   -2.000000e-02 7.000000e-02 -1.403987e-01
    endloop
  endfacet
  facet normal -9.807853e-01 1.361113e-15 -1.950903e-01
    outer loop
      vertex   -2.000000e-02 7.000000e-02 -1.403987e-01
      vertex   -1.847759e-02 6.500000e-02 -1.480523e-01
      vertex   -2.000000e-02 6.500000e-02 -1.403987e-01
    endloop
  endfacet
  facet normal 5.204170e-16 1.000000e+00 -6.319761e-17
    outer loop
      vertex   -2.000000e-02 3.500000e-02 -6.029706e-02
      vertex   2.487982e-16 3.500000e-02 -5.398668e-03
      vertex   2.000000e-02 3.500000e-02 -6.029706e-02
    endloop
  endfacet
  facet normal 6.171099e-17 1.000000e+00 -2.303085e-16
    outer loop
      vertex   2.000000e-02 3.500000e-02 -6.029706e-02
      vertex   2.487982e-16 3.500000e-02 -5.398668e-03
      vertex   2.500000e-03 3.500000e-02 -4.728795e-03
    endloop
  endfacet
  facet normal 1.899291e-16 1.000000e+00 -1.899291e-16
    outer loop
      vertex   2.000000e-02 3.500000e-02 -6.029706e-02
      vertex   2.500000e-03 3.500000e-02 -4.728795e-03
      vertex   4.330127e-03 3.500000e-02 -2.898668e-03
    endloop
  endfacet
  facet normal 4.428175e-16 1.000000e+00 2.564897e-32
    outer loop
      vertex   -2.000000e-02 3.500000e-02 -3.986677e-04
      vertex   -4.330127e-03 3.500000e-02 -2.898668e-03
      vertex   -2.000000e-02 3.500000e-02 -6.029706e-02
    endloop
  endfacet
  facet normal 9.496454e-17 1.000000e+00 9.496454e-17
    outer loop
      vertex   -2.000000e-02 3.500000e-02 -6.029706e-02
      vertex   -4.330127e-03 3.500000e-02 -2.898668e-03
      vertex   -2.500000e-03 3.500000e-02 -4.728795e-03
    endloop
  endfacet
  facet normal 3.085549e-17 1.000000e+00 1.151543e-16
    outer loop
      vertex   -2.000000e-02 3.500000e-02 -6.029706e-02
      vertex   -2.500000e-03 3.500000e-02 -4.728795e-03
      vertex   2.487982e-16 3.500000e-02 -5.398668e-03
    endloop
  endfacet
  facet normal 4.625929e-16 1.000000e+00 1.239514e-16
    outer loop
      vertex   -4.330127e-03 3.500000e-02 -2.898668e-03
      vertex   -2.000000e-02 3.500000e-02 -3.986677e-04
      vertex   -5.000000e-03 3.500000e-02 -3.986677e-04
    endloop
  endfacet
  facet normal 4.625929e-16 1.000000e+00 -9.201545e-17
    outer loop
      vertex   -5.000000e-03 3.500000e-02 -3.986677e-04
      vertex   -2.000000e-02 3.500000e-02 -3.986677e-04
      vertex   -1.847759e-02 3.500000e-02 7.255001e-03
    endloop
  endfacet
  facet normal 8.134787e-16 1.000000e+00 5.258705e-16
    outer loop
      vertex   -5.000000e-03 3.500000e-02 -3.986677e-04
      vertex   -1.847759e-02 3.500000e-02 7.255001e-03
      vertex   -1.414214e-02 3.500000e-02 1.374347e-02
    endloop
  endfacet
  facet normal 0.000000e+00 1.000000e+00 -0.000000e+00
    outer loop
      vertex   -5.000000e-03 3.500000e-02 -3.986677e-04
      vertex   -1.414214e-02 3.500000e-02 1.374347e-02
      vertex   -4.330127e-03 3.500000e-02 2.101332e-03
    endloop
  endfacet
  facet normal 0.000000e+00 1.000000e+00 0.000000e+00
    outer loop
      vertex   -4.330127e-03 3.500000e-02 2.101332e-03
      vertex   -1.414214e-02 3.500000e-02 1.374347e-02
      vertex   -7.653669e-03 3.500000e-02 1.807892e-02
    endloop
  endfacet
  facet normal 0.000000e+00 1.000000e+00 -0.000000e+00
    outer loop
      vertex   -4.330127e-03 3.500000e-02 2.101332e-03
      vertex   -7.653669e-03 3.500000e-02 1.807892e-02
      vertex   -2.500000e-03 3.500000e-02 3.931459e-03
    endloop
  endfacet
  facet normal 0.000000e+00 1.000000e+00 -0.000000e+00
    outer loop
      vertex   -2.500000e-03 3.500000e-02 3.931459e-03
      vertex   -7.653669e-03 3.500000e-02 1.807892e-02
      vertex   2.450651e-16 3.500000e-02 1.960133e-02
    endloop
  endfacet
  facet normal 0.000000e+00 1.000000e+00 0.000000e+00
    outer loop
      vertex   -2.500000e-03 3.500000e-02 3.931459e-03
      vertex   2.450651e-16 3.500000e-02 1.960133e-02
      vertex   2.469376e-16 3.500000e-02 4.601332e-03
    endloop
  endfacet
  facet normal -0.000000e+00 1.000000e+00 -0.000000e+00
    outer loop
      vertex   2.469376e-16 3.500000e-02 4.601332e-03
      vertex   2.450651e-16 3.500000e-02 1.960133e-02
      vertex   2.500000e-03 3.500000e-02 3.931459e-03
    endloop
  endfacet
  facet normal 9.363243e-16 1.000000e+00 1.493829e-16
    outer loop
      vertex   2.500000e-03 3.500000e-02 3.931459e-03
      vertex   2.450651e-16 3.500000e-02 1.960133e-02
      vertex   7.653669e-03 3.500000e-02 1.807892e-02
    endloop
  endfacet
  facet normal 3.595071e-16 1.000000e+00 3.595071e-16
    outer loop
      vertex   2.500000e-03 3.500000e-02 3.931459e-03
      vertex   7.653669e-03 3.500000e-02 1.807892e-02
      vertex   4.330127e-03 3.500000e-02 2.101332e-03
    endloop
  endfacet
  facet normal 2.547720e-16 1.000000e+00 3.812933e-16
    outer loop
      vertex   4.330127e-03 3.500000e-02 2.101332e-03
      vertex   7.653669e-03 3.500000e-02 1.807892e-02
      vertex   1.414214e-02 3.500000e-02 1.374347e-02
    endloop
  endfacet
  facet normal 5.365881e-16 1.000000e+00 1.437783e-16
    outer loop
      vertex   4.330127e-03 3.500000e-02 2.101332e-03
      vertex   1.414214e-02 3.500000e-02 1.374347e-02
      vertex   5.000000e-03 3.500000e-02 -3.986677e-04
    endloop
  endfacet
  facet normal 1.186706e-15 1.000000e+00 -2.764881e-16
    outer loop
      vertex   5.000000e-03 3.500000e-02 -3.986677e-04
      vertex   1.414214e-02 3.500000e-02 1.374347e-02
      vertex   1.847759e-02 3.500000e-02 7.255001e-03
    endloop
  endfacet
  facet normal 9.251859e-16 1.000000e+00 1.840309e-16
    outer loop
      vertex   5.000000e-03 3.500000e-02 -3.986677e-04
      vertex   1.847759e-02 3.500000e-02 7.255001e-03
      vertex   2.000000e-02 3.500000e-02 -3.986677e-04
    endloop
  endfacet
  facet normal 9.251859e-16 1.000000e+00 -2.479028e-16
    outer loop
      vertex   5.000000e-03 3.500000e-02 -3.986677e-04
      vertex   2.000000e-02 3.500000e-02 -3.986677e-04
      vertex   4.330127e-03 3.500000e-02 -2.898668e-03
    endloop
  endfacet
  facet normal 8.856350e-16 1.000000e+00 1.025959e-31
    outer loop
      vertex   4.330127e-03 3.500000e-02 -2.898668e-03
      vertex   2.000000e-02 3.500000e-02 -3.986677e-04
      vertex   2.000000e-02 3.500000e-02 -6.029706e-02
    endloop
  endfacet
  facet normal -2.588190e-01 1.675614e-16 9.659258e-01
    outer loop
      vertex   2.500000e-03 3.000000e-02 -4.728795e-03
      vertex   2.500000e-03 3.500000e-02 -4.728795e-03
      vertex   2.461858e-16 3.000000e-02 -5.398668e-03
    endloop
  endfacet
  facet normal -2.588190e-01 1.352291e-16 9.659258e-01
    outer loop
      vertex   2.461858e-16 3.000000e-02 -5.398668e-03
      vertex   2.500000e-03 3.500000e-02 -4.728795e-03
      vertex   2.487982e-16 3.500000e-02 -5.398668e-03
    endloop
  endfacet
  facet normal 2.588190e-01 -1.352291e-16 9.659258e-01
    outer loop
      vertex   2.461858e-16 3.000000e-02 -5.398668e-03
      vertex   2.487982e-16 3.500000e-02 -5.398668e-03
      vertex   -2.500000e-03 3.000000e-02 -4.728795e-03
    endloop
  endfacet
  facet normal 2.588190e-01 -1.675614e-16 9.659258e-01
    outer loop
      vertex   -2.500000e-03 3.000000e-02 -4.728795e-03
      vertex   2.487982e-16 3.500000e-02 -5.398668e-03
      vertex   -2.500000e-03 3.500000e-02 -4.728795e-03
    endloop
  endfacet
  facet normal 7.071068e-01 -1.226635e-16 7.071068e-01
    outer loop
      vertex   -2.500000e-03 3.000000e-02 -4.728795e-03
      vertex   -2.500000e-03 3.500000e-02 -4.728795e-03
      vertex   -4.330127e-03 3.000000e-02 -2.898668e-03
    endloop
  endfacet
  facet normal 7.071068e-01 -6.133174e-16 7.071068e-01
    outer loop
      vertex   -4.330127e-03 3.000000e-02 -2.898668e-03
      vertex   -2.500000e-03 3.500000e-02 -4.728795e-03
      vertex   -4.330127e-03 3.500000e-02 -2.898668e-03
    endloop
  endfacet
  facet normal 9.659258e-01 -2.244897e-16 2.588190e-01
    outer loop
      vertex   -4.330127e-03 3.000000e-02 -2.898668e-03
      vertex   -4.330127e-03 3.500000e-02 -2.898668e-03
      vertex   -5.000000e-03 3.000000e-02 -3.986677e-04
    endloop
  endfacet
  facet normal 9.659258e-01 -3.351228e-16 2.588190e-01
    outer loop
      vertex   -5.000000e-03 3.000000e-02 -3.986677e-04
      vertex   -4.330127e-03 3.500000e-02 -2.898668e-03
      vertex   -5.000000e-03 3.500000e-02 -3.986677e-04
    endloop
  endfacet
  facet normal 9.659258e-01 -3.351228e-16 -2.588190e-01
    outer loop
      vertex   -5.000000e-03 3.000000e-02 -3.986677e-04
      vertex   -5.000000e-03 3.500000e-02 -3.986677e-04
      vertex   -4.330127e-03 3.000000e-02 2.101332e-03
    endloop
  endfacet
  facet normal 9.659258e-01 -5.580008e-16 -2.588190e-01
    outer loop
      vertex   -4.330127e-03 3.000000e-02 2.101332e-03
      vertex   -5.000000e-03 3.500000e-02 -3.986677e-04
      vertex   -4.330127e-03 3.500000e-02 2.101332e-03
    endloop
  endfacet
  facet normal 7.071068e-01 -1.839952e-16 -7.071068e-01
    outer loop
      vertex   -4.330127e-03 3.000000e-02 2.101332e-03
      vertex   -4.330127e-03 3.500000e-02 2.101332e-03
      vertex   -2.500000e-03 3.000000e-02 3.931459e-03
    endloop
  endfacet
  facet normal 7.071068e-01 -3.066587e-16 -7.071068e-01
    outer loop
      vertex   -2.500000e-03 3.000000e-02 3.931459e-03
      vertex   -4.330127e-03 3.500000e-02 2.101332e-03
      vertex   -2.500000e-03 3.500000e-02 3.931459e-03
    endloop
  endfacet
  facet normal 2.588190e-01 1.330821e-16 -9.659258e-01
    outer loop
      vertex   -2.500000e-03 3.000000e-02 3.931459e-03
      vertex   -2.500000e-03 3.500000e-02 3.931459e-03
      vertex   2.449375e-16 3.000000e-02 4.601332e-03
    endloop
  endfacet
  facet normal 2.588190e-01 -1.035329e-16 -9.659258e-01
    outer loop
      vertex   2.449375e-16 3.000000e-02 4.601332e-03
      vertex   -2.500000e-03 3.500000e-02 3.931459e-03
      vertex   2.469376e-16 3.500000e-02 4.601332e-03
    endloop
  endfacet
  facet normal -2.588190e-01 1.035329e-16 -9.659258e-01
    outer loop
      vertex   2.449375e-16 3.000000e-02 4.601332e-03
      vertex   2.469376e-16 3.500000e-02 4.601332e-03
      vertex   2.500000e-03 3.000000e-02 3.931459e-03
    endloop
  endfacet
  facet normal -2.588190e-01 3.447934e-17 -9.659258e-01
    outer loop
      vertex   2.500000e-03 3.000000e-02 3.931459e-03
      vertex   2.469376e-16 3.500000e-02 4.601332e-03
      vertex   2.500000e-03 3.500000e-02 3.931459e-03
    endloop
  endfacet
  facet normal -7.071068e-01 4.293222e-16 -7.071068e-01
    outer loop
      vertex   2.500000e-03 3.000000e-02 3.931459e-03
      vertex   2.500000e-03 3.500000e-02 3.931459e-03
      vertex   4.330127e-03 3.000000e-02 2.101332e-03
    endloop
  endfacet
  facet normal -7.071068e-01 6.133174e-17 -7.071068e-01
    outer loop
      vertex   4.330127e-03 3.000000e-02 2.101332e-03
      vertex   2.500000e-03 3.500000e-02 3.931459e-03
      vertex   4.330127e-03 3.500000e-02 2.101332e-03
    endloop
  endfacet
  facet normal -9.659258e-01 3.904394e-16 -2.588190e-01
    outer loop
      vertex   4.330127e-03 3.000000e-02 2.101332e-03
      vertex   4.330127e-03 3.500000e-02 2.101332e-03
      vertex   5.000000e-03 3.000000e-02 -3.986677e-04
    endloop
  endfacet
  facet normal -9.659258e-01 3.351228e-16 -2.588190e-01
    outer loop
      vertex   5.000000e-03 3.000000e-02 -3.986677e-04
      vertex   4.330127e-03 3.500000e-02 2.101332e-03
      vertex   5.000000e-03 3.500000e-02 -3.986677e-04
    endloop
  endfacet
  facet normal -9.659258e-01 3.351228e-16 2.588190e-01
    outer loop
      vertex   5.000000e-03 3.000000e-02 -3.986677e-04
      vertex   5.000000e-03 3.500000e-02 -3.986677e-04
      vertex   4.330127e-03 3.000000e-02 -2.898668e-03
    endloop
  endfacet
  facet normal -9.659258e-01 2.244897e-16 2.588190e-01
    outer loop
      vertex   4.330127e-03 3.000000e-02 -2.898668e-03
      vertex   5.000000e-03 3.500000e-02 -3.986677e-04
      vertex   4.330127e-03 3.500000e-02 -2.898668e-03
    endloop
  endfacet
  facet normal -7.071068e-01 6.133174e-16 7.071068e-01
    outer loop
      vertex   4.330127e-03 3.000000e-02 -2.898668e-03
      vertex   4.330127e-03 3.500000e-02 -2.898668e-03
      vertex   2.500000e-03 3.000000e-02 -4.728795e-03
    endloop
  endfacet
  facet normal -7.071068e-01 1.226635e-16 7.071068e-01
    outer loop
      vertex   2.500000e-03 3.000000e-02 -4.728795e-03
      vertex   4.330127e-03 3.500000e-02 -2.898668e-03
      vertex   2.500000e-03 3.500000e-02 -4.728795e-03
    endloop
  endfacet
  facet normal 9.807853e-01 -0.000000e+00 1.950903e-01
    outer loop
      vertex   2.000000e-02 3.000000e-02 -3.986677e-04
      vertex   2.000000e-02 3.500000e-02 -3.986677e-04
      vertex   1.847759e-02 3.000000e-02 7.255001e-03
    endloop
  endfacet
  facet normal 9.807853e-01 -6.805565e-16 1.950903e-01
    outer loop
      vertex   1.847759e-02 3.000000e-02 7.255001e-03
      vertex   2.000000e-02 3.500000e-02 -3.986677e-04
      vertex   1.847759e-02 3.500000e-02 7.255001e-03
    endloop
  endfacet
  facet normal 8.314696e-01 -5.769479e-16 5.555702e-01
    outer loop
      vertex   1.847759e-02 3.000000e-02 7.255001e-03
      vertex   1.847759e-02 3.500000e-02 7.255001e-03
      vertex   1.414214e-02 3.000000e-02 1.374347e-02
    endloop
  endfacet
  facet normal 8.314696e-01 -5.769479e-16 5.555702e-01
    outer loop
      vertex   1.414214e-02 3.000000e-02 1.374347e-02
      vertex   1.847759e-02 3.500000e-02 7.255001e-03
      vertex   1.414214e-02 3.500000e-02 1.374347e-02
    endloop
  endfacet
  facet normal 5.555702e-01 -3.855043e-16 8.314696e-01
    outer loop
      vertex   1.414214e-02 3.000000e-02 1.374347e-02
      vertex   1.414214e-02 3.500000e-02 1.374347e-02
      vertex   7.653669e-03 3.000000e-02 1.807892e-02
    endloop
  endfacet
  facet normal 5.555702e-01 -2.891282e-16 8.314696e-01
    outer loop
      vertex   7.653669e-03 3.000000e-02 1.807892e-02
      vertex   1.414214e-02 3.500000e-02 1.374347e-02
      vertex   7.653669e-03 3.500000e-02 1.807892e-02
    endloop
  endfacet
  facet normal 1.950903e-01 -1.015283e-16 9.807853e-01
    outer loop
      vertex   7.653669e-03 3.000000e-02 1.807892e-02
      vertex   7.653669e-03 3.500000e-02 1.807892e-02
      vertex   2.430650e-16 3.000000e-02 1.960133e-02
    endloop
  endfacet
  facet normal 1.950903e-01 -7.804012e-17 9.807853e-01
    outer loop
      vertex   2.430650e-16 3.000000e-02 1.960133e-02
      vertex   7.653669e-03 3.500000e-02 1.807892e-02
      vertex   2.450651e-16 3.500000e-02 1.960133e-02
    endloop
  endfacet
  facet normal -1.950903e-01 7.804012e-17 9.807853e-01
    outer loop
      vertex   2.430650e-16 3.000000e-02 1.960133e-02
      vertex   2.450651e-16 3.500000e-02 1.960133e-02
      vertex   -7.653669e-03 3.000000e-02 1.807892e-02
    endloop
  endfacet
  facet normal -1.950903e-01 6.768555e-17 9.807853e-01
    outer loop
      vertex   -7.653669e-03 3.000000e-02 1.807892e-02
      vertex   2.450651e-16 3.500000e-02 1.960133e-02
      vertex   -7.653669e-03 3.500000e-02 1.807892e-02
    endloop
  endfacet
  facet normal -5.555702e-01 1.927521e-16 8.314696e-01
    outer loop
      vertex   -7.653669e-03 3.000000e-02 1.807892e-02
      vertex   -7.653669e-03 3.500000e-02 1.807892e-02
      vertex   -1.414214e-02 3.000000e-02 1.374347e-02
    endloop
  endfacet
  facet normal -5.555702e-01 1.927521e-16 8.314696e-01
    outer loop
      vertex   -1.414214e-02 3.000000e-02 1.374347e-02
      vertex   -7.653669e-03 3.500000e-02 1.807892e-02
      vertex   -1.414214e-02 3.500000e-02 1.374347e-02
    endloop
  endfacet
  facet normal -8.314696e-01 2.884740e-16 5.555702e-01
    outer loop
      vertex   -1.414214e-02 3.000000e-02 1.374347e-02
      vertex   -1.414214e-02 3.500000e-02 1.374347e-02
      vertex   -1.847759e-02 3.000000e-02 7.255001e-03
    endloop
  endfacet
  facet normal -8.314696e-01 0.000000e+00 5.555702e-01
    outer loop
      vertex   -1.847759e-02 3.000000e-02 7.255001e-03
      vertex   -1.414214e-02 3.500000e-02 1.374347e-02
      vertex   -1.847759e-02 3.500000e-02 7.255001e-03
    endloop
  endfacet
  facet normal -9.807853e-01 0.000000e+00 1.950903e-01
    outer loop
      vertex   -1.847759e-02 3.000000e-02 7.255001e-03
      vertex   -1.847759e-02 3.500000e-02 7.255001e-03
      vertex   -2.000000e-02 3.000000e-02 -3.986677e-04
    endloop
  endfacet
  facet normal -9.807853e-01 1.361113e-15 1.950903e-01
    outer loop
      vertex   -2.000000e-02 3.000000e-02 -3.986677e-04
      vertex   -1.847759e-02 3.500000e-02 7.255001e-03
      vertex   -2.000000e-02 3.500000e-02 -3.986677e-04
    endloop
  endfacet
  facet normal 1.000000e+00 2.751328e-31 9.912706e-17
    outer loop
      vertex   2.000000e-02 3.000000e-02 -1.403987e-01
      vertex   2.000000e-02 3.500000e-02 -7.039867e-02
      vertex   2.000000e-02 3.000000e-02 -3.986677e-04
    endloop
  endfacet
  facet normal 1.000000e+00 -1.387779e-15 0.000000e+00
    outer loop
      vertex   2.000000e-02 3.000000e-02 -3.986677e-04
      vertex   2.000000e-02 3.500000e-02 -7.039867e-02
      vertex   2.000000e-02 3.500000e-02 -6.029706e-02
    endloop
  endfacet
  facet normal 1.000000e+00 -0.000000e+00 1.158444e-16
    outer loop
      vertex   2.000000e-02 3.000000e-02 -3.986677e-04
      vertex   2.000000e-02 3.500000e-02 -6.029706e-02
      vertex   2.000000e-02 3.500000e-02 -3.986677e-04
    endloop
  endfacet
  facet normal 1.000000e+00 -6.938894e-16 1.486906e-16
    outer loop
      vertex   2.000000e-02 3.000000e-02 -1.403987e-01
      vertex   2.000000e-02 3.500000e-02 -1.403987e-01
      vertex   2.000000e-02 3.500000e-02 -7.039867e-02
    endloop
  endfacet
  facet normal 1.000000e+00 -3.469447e-16 0.000000e+00
    outer loop
      vertex   2.000000e-02 3.500000e-02 -6.029706e-02
      vertex   2.000000e-02 3.500000e-02 -7.039867e-02
      vertex   2.000000e-02 6.500000e-02 -6.029706e-02
    endloop
  endfacet
  facet normal 1.000000e+00 -3.469447e-16 0.000000e+00
    outer loop
      vertex   2.000000e-02 6.500000e-02 -6.029706e-02
      vertex   2.000000e-02 3.500000e-02 -7.039867e-02
      vertex   2.000000e-02 6.500000e-02 -7.039867e-02
    endloop
  endfacet
  facet normal 1.000000e+00 6.938894e-16 0.000000e+00
    outer loop
      vertex   2.000000e-02 6.500000e-02 -6.029706e-02
      vertex   2.000000e-02 6.500000e-02 -7.039867e-02
      vertex   2.000000e-02 7.000000e-02 -3.986677e-04
    endloop
  endfacet
  facet normal 1.000000e+00 -1.040834e-15 1.239088e-16
    outer loop
      vertex   2.000000e-02 7.000000e-02 -3.986677e-04
      vertex   2.000000e-02 6.500000e-02 -7.039867e-02
      vertex   2.000000e-02 7.000000e-02 -1.403987e-01
    endloop
  endfacet
  facet normal 1.000000e+00 -1.387779e-15 9.912706e-17
    outer loop
      vertex   2.000000e-02 7.000000e-02 -1.403987e-01
      vertex   2.000000e-02 6.500000e-02 -7.039867e-02
      vertex   2.000000e-02 6.500000e-02 -1.403987e-01
    endloop
  endfacet
  facet normal 1.000000e+00 -1.387779e-15 1.737666e-16
    outer loop
      vertex   2.000000e-02 7.000000e-02 -3.986677e-04
      vertex   2.000000e-02 6.500000e-02 -3.986677e-04
      vertex   2.000000e-02 6.500000e-02 -6.029706e-02
    endloop
  endfacet
  facet normal -9.807853e-01 6.805565e-16 -1.950903e-01
    outer loop
      vertex   -2.000000e-02 3.000000e-02 -1.403987e-01
      vertex   -2.000000e-02 3.500000e-02 -1.403987e-01
      vertex   -1.847759e-02 3.000000e-02 -1.480523e-01
    endloop
  endfacet
  facet normal -9.807853e-01 0.000000e+00 -1.950903e-01
    outer loop
      vertex   -1.847759e-02 3.000000e-02 -1.480523e-01
      vertex   -2.000000e-02 3.500000e-02 -1.403987e-01
      vertex   -1.847759e-02 3.500000e-02 -1.480523e-01
    endloop
  endfacet
  facet normal -8.314696e-01 0.000000e+00 -5.555702e-01
    outer loop
      vertex   -1.847759e-02 3.000000e-02 -1.480523e-01
      vertex   -1.847759e-02 3.500000e-02 -1.480523e-01
      vertex   -1.414214e-02 3.000000e-02 -1.545408e-01
    endloop
  endfacet
  facet normal -8.314696e-01 2.884740e-16 -5.555702e-01
    outer loop
      vertex   -1.414214e-02 3.000000e-02 -1.545408e-01
      vertex   -1.847759e-02 3.500000e-02 -1.480523e-01
      vertex   -1.414214e-02 3.500000e-02 -1.545408e-01
    endloop
  endfacet
  facet normal -5.555702e-01 1.927521e-16 -8.314696e-01
    outer loop
      vertex   -1.414214e-02 3.000000e-02 -1.545408e-01
      vertex   -1.414214e-02 3.500000e-02 -1.545408e-01
      vertex   -7.653669e-03 3.000000e-02 -1.588763e-01
    endloop
  endfacet
  facet normal -5.555702e-01 2.891282e-16 -8.314696e-01
    outer loop
      vertex   -7.653669e-03 3.000000e-02 -1.588763e-01
      vertex   -1.414214e-02 3.500000e-02 -1.545408e-01
      vertex   -7.653669e-03 3.500000e-02 -1.588763e-01
    endloop
  endfacet
  facet normal -1.950903e-01 1.015283e-16 -9.807853e-01
    outer loop
      vertex   -7.653669e-03 3.000000e-02 -1.588763e-01
      vertex   -7.653669e-03 3.500000e-02 -1.588763e-01
      vertex   2.679836e-16 3.000000e-02 -1.603987e-01
    endloop
  endfacet
  facet normal -1.950903e-01 7.804012e-17 -9.807853e-01
    outer loop
      vertex   2.679836e-16 3.000000e-02 -1.603987e-01
      vertex   -7.653669e-03 3.500000e-02 -1.588763e-01
      vertex   2.699837e-16 3.500000e-02 -1.603987e-01
    endloop
  endfacet
  facet normal 1.950903e-01 -7.804012e-17 -9.807853e-01
    outer loop
      vertex   2.679836e-16 3.000000e-02 -1.603987e-01
      vertex   2.699837e-16 3.500000e-02 -1.603987e-01
      vertex   7.653669e-03 3.000000e-02 -1.588763e-01
    endloop
  endfacet
  facet normal 1.950903e-01 -1.015283e-16 -9.807853e-01
    outer loop
      vertex   7.653669e-03 3.000000e-02 -1.588763e-01
      vertex   2.699837e-16 3.500000e-02 -1.603987e-01
      vertex   7.653669e-03 3.500000e-02 -1.588763e-01
    endloop
  endfacet
  facet normal 5.555702e-01 -2.891282e-16 -8.314696e-01
    outer loop
      vertex   7.653669e-03 3.000000e-02 -1.588763e-01
      vertex   7.653669e-03 3.500000e-02 -1.588763e-01
      vertex   1.414214e-02 3.000000e-02 -1.545408e-01
    endloop
  endfacet
  facet normal 5.555702e-01 -1.927521e-16 -8.314696e-01
    outer loop
      vertex   1.414214e-02 3.000000e-02 -1.545408e-01
      vertex   7.653669e-03 3.500000e-02 -1.588763e-01
      vertex   1.414214e-02 3.500000e-02 -1.545408e-01
    endloop
  endfacet
  facet normal 8.314696e-01 -2.884740e-16 -5.555702e-01
    outer loop
      vertex   1.414214e-02 3.000000e-02 -1.545408e-01
      vertex   1.414214e-02 3.500000e-02 -1.545408e-01
      vertex   1.847759e-02 3.000000e-02 -1.480523e-01
    endloop
  endfacet
  facet normal 8.314696e-01 0.000000e+00 -5.555702e-01
    outer loop
      vertex   1.847759e-02 3.000000e-02 -1.480523e-01
      vertex   1.414214e-02 3.500000e-02 -1.545408e-01
      vertex   1.847759e-02 3.500000e-02 -1.480523e-01
    endloop
  endfacet
  facet normal 9.807853e-01 0.000000e+00 -1.950903e-01
    outer loop
      vertex   1.847759e-02 3.000000e-02 -1.480523e-01
      vertex   1.847759e-02 3.500000e-02 -1.480523e-01
      vertex   2.000000e-02 3.000000e-02 -1.403987e-01
    endloop
  endfacet
  facet normal 9.807853e-01 -6.805565e-16 -1.950903e-01
    outer loop
      vertex   2.000000e-02 3.000000e-02 -1.403987e-01
      vertex   1.847759e-02 3.500000e-02 -1.480523e-01
      vertex   2.000000e-02 3.500000e-02 -1.403987e-01
    endloop
  endfacet
  facet normal -1.000000e+00 6.938894e-16 -1.486906e-16
    outer loop
      vertex   -2.000000e-02 3.500000e-02 -1.403987e-01
      vertex   -2.000000e-02 3.000000e-02 -1.403987e-01
      vertex   -2.000000e-02 3.500000e-02 -7.039867e-02
    endloop
  endfacet
  facet normal -1.000000e+00 6.938894e-16 -1.486906e-16
    outer loop
      vertex   -2.000000e-02 3.500000e-02 -7.039867e-02
      vertex   -2.000000e-02 3.000000e-02 -1.403987e-01
      vertex   -2.000000e-02 3.000000e-02 -3.986677e-04
    endloop
  endfacet
  facet normal -1.000000e+00 -2.032811e-15 -3.434549e-16
    outer loop
      vertex   -2.000000e-02 3.500000e-02 -7.039867e-02
      vertex   -2.000000e-02 3.000000e-02 -3.986677e-04
      vertex   -2.000000e-02 3.500000e-02 -6.029706e-02
    endloop
  endfacet
  facet normal -1.000000e+00 1.387779e-15 -5.792221e-17
    outer loop
      vertex   -2.000000e-02 3.500000e-02 -6.029706e-02
      vertex   -2.000000e-02 3.000000e-02 -3.986677e-04
      vertex   -2.000000e-02 3.500000e-02 -3.986677e-04
    endloop
  endfacet
  facet normal -1.000000e+00 3.469447e-16 -3.434549e-16
    outer loop
      vertex   -2.000000e-02 3.500000e-02 -7.039867e-02
      vertex   -2.000000e-02 3.500000e-02 -6.029706e-02
      vertex   -2.000000e-02 6.500000e-02 -7.039867e-02
    endloop
  endfacet
  facet normal -1.000000e+00 4.625929e-16 0.000000e+00
    outer loop
      vertex   -2.000000e-02 6.500000e-02 -7.039867e-02
      vertex   -2.000000e-02 3.500000e-02 -6.029706e-02
      vertex   -2.000000e-02 6.500000e-02 -6.029706e-02
    endloop
  endfacet
  facet normal -1.000000e+00 -6.938894e-16 0.000000e+00
    outer loop
      vertex   -2.000000e-02 6.500000e-02 -7.039867e-02
      vertex   -2.000000e-02 6.500000e-02 -6.029706e-02
      vertex   -2.000000e-02 7.000000e-02 -3.986677e-04
    endloop
  endfacet
  facet normal -1.000000e+00 1.387779e-15 -1.737666e-16
    outer loop
      vertex   -2.000000e-02 7.000000e-02 -3.986677e-04
      vertex   -2.000000e-02 6.500000e-02 -6.029706e-02
      vertex   -2.000000e-02 6.500000e-02 -3.986677e-04
    endloop
  endfacet
  facet normal -1.000000e+00 1.040834e-15 -1.239088e-16
    outer loop
      vertex   -2.000000e-02 7.000000e-02 -3.986677e-04
      vertex   -2.000000e-02 7.000000e-02 -1.403987e-01
      vertex   -2.000000e-02 6.500000e-02 -7.039867e-02
    endloop
  endfacet
  facet normal -1.000000e+00 1.387779e-15 -9.912706e-17
    outer loop
      vertex   -2.000000e-02 6.500000e-02 -7.039867e-02
      vertex   -2.000000e-02 7.000000e-02 -1.403987e-01
      vertex   -2.000000e-02 6.500000e-02 -1.403987e-01
    endloop
  endfacet
endsolid
